<svg width="21" height="20" viewBox="0 0 21 20" fill="none" xmlns="http://www.w3.org/2000/svg">
<path d="M1 1L3.08 1.35582L4.04301 12.6957C4.12001 13.6218 4.90301 14.3325 5.84301 14.3295H16.752C17.649 14.3315 18.41 13.6791 18.537 12.8014L19.486 6.31954C19.592 5.59505 19.083 4.92294 18.351 4.81817C18.287 4.80927 3.414 4.80433 3.414 4.80433"  stroke-width="1.5" stroke-linecap="round" stroke-linejoin="round"/>
<path d="M12.375 8.48737H15.1479"  stroke-width="1.5" stroke-linecap="round" stroke-linejoin="round"/>
<path fill-rule="evenodd" clip-rule="evenodd" d="M5.4043 17.7856C5.70527 17.7856 5.94824 18.0269 5.94824 18.3236C5.94824 18.6213 5.70527 18.8625 5.4043 18.8625C5.10333 18.8625 4.86035 18.6213 4.86035 18.3236C4.86035 18.0269 5.10333 17.7856 5.4043 17.7856Z"   stroke-width="1.5" stroke-linecap="round" stroke-linejoin="round"/>
<path fill-rule="evenodd" clip-rule="evenodd" d="M16.6846 17.7856C16.9856 17.7856 17.2296 18.0269 17.2296 18.3236C17.2296 18.6213 16.9856 18.8625 16.6846 18.8625C16.3836 18.8625 16.1406 18.6213 16.1406 18.3236C16.1406 18.0269 16.3836 17.7856 16.6846 17.7856Z"   stroke-width="1.5" stroke-linecap="round" stroke-linejoin="round"/>
</svg>
