<svg width="320" height="201" viewBox="0 0 320 201" fill="none" xmlns="http://www.w3.org/2000/svg">
<g id="icons for sprite">
<g id="icon-cart">
<path id="Stroke 1" d="M37 2.02979L39.08 2.38561L40.043 13.7255C40.12 14.6516 40.903 15.3622 41.843 15.3593H52.752C53.649 15.3613 54.41 14.7089 54.537 13.8312L55.486 7.34932C55.592 6.62483 55.083 5.95272 54.351 5.84795C54.287 5.83906 39.414 5.83412 39.414 5.83412" stroke="black" stroke-width="1.5" stroke-linecap="round" stroke-linejoin="round"/>
<path id="Stroke 3" d="M48.375 9.48737H51.1479" stroke="black" stroke-width="1.5" stroke-linecap="round" stroke-linejoin="round"/>
<path id="Stroke 5" fill-rule="evenodd" clip-rule="evenodd" d="M41.4043 18.7856C41.7053 18.7856 41.9482 19.0269 41.9482 19.3236C41.9482 19.6213 41.7053 19.8625 41.4043 19.8625C41.1033 19.8625 40.8604 19.6213 40.8604 19.3236C40.8604 19.0269 41.1033 18.7856 41.4043 18.7856Z" fill="black" stroke="black" stroke-width="1.5" stroke-linecap="round" stroke-linejoin="round"/>
<path id="Stroke 7" fill-rule="evenodd" clip-rule="evenodd" d="M52.6846 18.7856C52.9856 18.7856 53.2296 19.0269 53.2296 19.3236C53.2296 19.6213 52.9856 19.8625 52.6846 19.8625C52.3836 19.8625 52.1406 19.6213 52.1406 19.3236C52.1406 19.0269 52.3836 18.7856 52.6846 18.7856Z" fill="black" stroke="black" stroke-width="1.5" stroke-linecap="round" stroke-linejoin="round"/>
</g>
<g id="icon-search">
<ellipse id="Ellipse_739" cx="11.7666" cy="10.6599" rx="8.98856" ry="8.88424" stroke="black" stroke-width="1.5" stroke-linecap="round" stroke-linejoin="round"/>
<path id="Line_181" d="M18.0183 17.3004L21.5423 20.7745" stroke="black" stroke-width="1.5" stroke-linecap="round" stroke-linejoin="round"/>
</g>
<g id="icon-category-burger" clip-path="url(#clip0_20162_73)">
<g id="Group">
<path id="Vector" d="M44 89.3657C44 87.6765 42.9108 86.2377 41.3982 85.7123C41.1658 80.4715 39.2092 76.4497 35.573 73.747C32.2543 71.2804 27.6878 70.0298 22 70.0298C16.3122 70.0298 11.7457 71.2804 8.42703 73.7471C4.79084 76.4497 2.83422 80.4715 2.60176 85.7123C1.08917 86.2377 0 87.6765 0 89.3657C0 90.3555 0.374172 91.2591 0.987852 91.9438C0.374172 92.6286 0 93.5322 0 94.522C0 96.2216 1.10258 97.6675 2.6296 98.1849C3.18252 104.075 8.18967 108.702 14.2656 108.702H29.7344C35.8103 108.702 40.8175 104.075 41.3704 98.1849C42.8974 97.6675 44 96.2216 44 94.522C44 93.5322 43.6258 92.6286 43.0121 91.9438C43.6258 91.2591 44 90.3555 44 89.3657ZM22 72.6079C29.3933 72.6079 38.1513 74.887 38.8034 85.4985H5.19655C5.84873 74.887 14.6067 72.6079 22 72.6079ZM3.86719 88.0767H40.1328C40.8436 88.0767 41.4219 88.6549 41.4219 89.3657C41.4219 90.0765 40.8436 90.6548 40.1328 90.6548H3.86719C3.1564 90.6548 2.57812 90.0765 2.57812 89.3657C2.57812 88.6549 3.1564 88.0767 3.86719 88.0767ZM29.7344 106.124H14.2656C9.68456 106.124 5.88302 102.756 5.24958 98.3892H6.44531C7.30709 98.3892 7.57943 98.6823 8.12187 99.2664C8.78857 99.9842 9.70166 100.967 11.6875 100.967C13.6874 100.967 14.5766 99.9742 15.226 99.2491C15.7387 98.6765 15.996 98.3892 16.8438 98.3892C17.6915 98.3892 17.9488 98.6765 18.4615 99.2491C19.1109 99.9742 20.0001 100.967 22 100.967C23.9999 100.967 24.8891 99.9742 25.5385 99.2491C26.0512 98.6765 26.3085 98.3892 27.1562 98.3892C28.004 98.3892 28.2613 98.6765 28.774 99.2491C29.4234 99.9742 30.3126 100.967 32.3125 100.967C34.3124 100.967 35.2016 99.9742 35.851 99.2491C36.3637 98.6765 36.621 98.3892 37.4688 98.3892H38.7504C38.117 102.756 34.3154 106.124 29.7344 106.124ZM40.1328 95.811H37.4688C35.4689 95.811 34.5796 96.8041 33.9303 97.5293C33.4176 98.1018 33.1603 98.3892 32.3125 98.3892C31.4647 98.3892 31.2074 98.1018 30.6947 97.5293C30.0454 96.8041 29.1561 95.811 27.1562 95.811C25.1564 95.811 24.2671 96.8041 23.6178 97.5293C23.1051 98.1018 22.8478 98.3892 22 98.3892C21.1522 98.3892 20.8949 98.1018 20.3822 97.5293C19.7329 96.8041 18.8436 95.811 16.8438 95.811C14.8439 95.811 13.9546 96.8041 13.3053 97.5293C12.7926 98.1018 12.5353 98.3892 11.6875 98.3892C10.8257 98.3892 10.5534 98.096 10.0109 97.5119C9.34424 96.7941 8.43116 95.811 6.44531 95.811H3.86719C3.1564 95.811 2.57812 95.2328 2.57812 94.522C2.57812 93.8112 3.1564 93.2329 3.86719 93.2329H40.1328C40.8436 93.2329 41.4219 93.8112 41.4219 94.522C41.4219 95.2328 40.8436 95.811 40.1328 95.811Z" fill="black"/>
<path id="Vector_2" d="M14.2656 82.9204C14.9776 82.9204 15.5547 82.3433 15.5547 81.6313C15.5547 80.9194 14.9776 80.3423 14.2656 80.3423C13.5537 80.3423 12.9766 80.9194 12.9766 81.6313C12.9766 82.3433 13.5537 82.9204 14.2656 82.9204Z" fill="black"/>
<path id="Vector_3" d="M29.7344 82.9204C30.4463 82.9204 31.0234 82.3433 31.0234 81.6313C31.0234 80.9194 30.4463 80.3423 29.7344 80.3423C29.0224 80.3423 28.4453 80.9194 28.4453 81.6313C28.4453 82.3433 29.0224 82.9204 29.7344 82.9204Z" fill="black"/>
<path id="Vector_4" d="M24.5781 80.3423C25.2901 80.3423 25.8672 79.7652 25.8672 79.0532C25.8672 78.3413 25.2901 77.7642 24.5781 77.7642C23.8662 77.7642 23.2891 78.3413 23.2891 79.0532C23.2891 79.7652 23.8662 80.3423 24.5781 80.3423Z" fill="black"/>
<path id="Vector_5" d="M19.4219 77.7642C20.1338 77.7642 20.7109 77.187 20.7109 76.4751C20.7109 75.7632 20.1338 75.186 19.4219 75.186C18.7099 75.186 18.1328 75.7632 18.1328 76.4751C18.1328 77.187 18.7099 77.7642 19.4219 77.7642Z" fill="black"/>
</g>
</g>
<g id="icon-category-pizza" clip-path="url(#clip1_20162_73)">
<g id="Group_2">
<g id="Group_3">
<path id="Vector_6" d="M112.745 112.782C112.511 113.014 112.163 113.091 111.853 112.98L76.1586 100.253C74.9185 101.011 73.3456 101.189 71.903 100.591C69.5083 99.5992 68.367 96.844 69.3589 94.4492C71.698 88.8024 75.0753 83.7478 79.3971 79.4259C83.719 75.1041 88.7735 71.7267 94.4204 69.3877C95.0068 69.1448 95.6146 69.0298 96.2131 69.0298C98.0586 69.0299 99.8133 70.1235 100.562 71.9319C101.066 73.1486 101.019 74.4581 100.537 75.5825L112.955 111.892C113.061 112.204 112.98 112.55 112.745 112.782ZM81.5632 100.355L85.3461 101.704C85.7903 101.231 86.0067 100.579 85.92 99.9204C85.8435 99.3403 85.5459 98.8246 85.0817 98.4684C84.6176 98.1122 84.0428 97.9582 83.4623 98.0345C82.8823 98.1109 82.3667 98.4085 82.0105 98.8727C81.6823 99.3004 81.5261 99.8222 81.5632 100.355ZM98.9743 72.5897C98.3451 71.0705 96.597 70.3465 95.0781 70.9759C84.0747 75.5336 75.5048 84.1036 70.9469 95.107C70.6421 95.8429 70.6421 96.6534 70.9469 97.3893C71.2517 98.1252 71.8248 98.6983 72.5607 99.0032C73.2966 99.308 74.1072 99.308 74.8431 99.0032C75.5789 98.6983 76.1521 98.1252 76.4569 97.3893C78.4077 92.6794 81.2248 88.4635 84.8297 84.8586C88.4346 81.2537 92.6505 78.4367 97.3604 76.4858C98.8796 75.8566 99.6037 74.1087 98.9743 72.5897ZM106.609 98.65C106.531 98.6519 106.454 98.6564 106.376 98.6665C105.796 98.7429 105.28 99.0406 104.924 99.5048C104.568 99.9689 104.414 100.544 104.49 101.124C104.648 102.322 105.75 103.167 106.948 103.01C107.317 102.961 107.664 102.818 107.96 102.6L106.609 98.65ZM108.532 104.271C108.113 104.499 107.653 104.651 107.172 104.714C105.035 104.996 103.068 103.486 102.786 101.348C102.65 100.313 102.925 99.2868 103.561 98.4584C104.173 97.6605 105.049 97.1392 106.038 96.9802L104.33 91.9856L102.366 93.4929C101.989 93.7817 101.45 93.7109 101.161 93.3343C100.872 92.9577 100.943 92.4183 101.319 92.1294L103.743 90.2695L99.3009 77.2797C98.9283 77.6036 98.4992 77.8747 98.0185 78.0738C88.9109 81.8464 81.8176 88.9396 78.0452 98.0471C77.9141 98.3639 77.7512 98.6579 77.5632 98.9288L79.8645 99.7493C79.9449 99.056 80.211 98.3946 80.647 97.8265C81.2826 96.9981 82.2029 96.4668 83.2381 96.3306C83.4115 96.3077 83.5844 96.2964 83.7565 96.2964C84.6114 96.2964 85.4384 96.5757 86.1281 97.1048C86.9566 97.7406 87.4878 98.6607 87.6242 99.6961C87.7465 100.625 87.5296 101.546 87.0425 102.309L97.7252 106.118L98.13 105.14C98.2672 104.809 98.5871 104.609 98.9243 104.609C99.0339 104.609 99.1453 104.63 99.2529 104.675C99.6913 104.857 99.8995 105.359 99.718 105.798L99.3462 106.695L110.752 110.762L108.532 104.271Z" fill="black"/>
</g>
</g>
<g id="Group_4">
<g id="Group_5">
<path id="Vector_7" d="M78.2812 89.9748C78.2787 89.9789 78.2715 89.9898 78.2688 89.9938C78.0056 90.3885 77.4731 90.4944 77.0782 90.2315C76.684 89.9691 76.5771 89.4364 76.838 89.0415C77.0026 88.7887 77.2779 88.6507 77.5592 88.6507C77.7183 88.6507 77.8793 88.6949 78.023 88.7873C78.4223 89.044 78.5378 89.5757 78.2812 89.9748Z" fill="black"/>
</g>
</g>
<g id="Group_6">
<g id="Group_7">
<path id="Vector_8" d="M76.9743 92.1098C76.1368 93.5781 75.384 95.1148 74.7368 96.6771C74.5552 97.1157 74.0523 97.3237 73.6141 97.1421C73.1755 96.9605 72.9674 96.4578 73.1491 96.0193C73.8237 94.3907 74.6084 92.7889 75.4814 91.2583C75.6399 90.9804 75.9301 90.8245 76.2286 90.8245C76.373 90.8245 76.5193 90.861 76.6536 90.9375C77.0658 91.1727 77.2095 91.6976 76.9743 92.1098Z" fill="black"/>
</g>
</g>
<g id="Group_8">
<g id="Group_9">
<path id="Vector_9" d="M95.8926 102.031C95.7223 102.053 95.5493 102.065 95.3784 102.065C93.4262 102.065 91.7616 100.603 91.5065 98.6656C91.2252 96.5285 92.7348 94.5609 94.8719 94.2795C95.0422 94.257 95.2152 94.2456 95.3861 94.2456C97.3382 94.2456 99.0028 95.707 99.258 97.6451C99.5393 99.7821 98.0296 101.75 95.8926 102.031ZM97.554 97.8694C97.411 96.7834 96.479 95.9645 95.3861 95.9645C95.29 95.9645 95.1925 95.9708 95.0963 95.9835C93.8988 96.1412 93.053 97.2437 93.2106 98.4413C93.3536 99.5272 94.2855 100.346 95.3784 100.346C95.4745 100.346 95.572 100.34 95.6682 100.327C96.8657 100.169 97.7116 99.0667 97.554 97.8694Z" fill="black"/>
</g>
</g>
<g id="Group_10">
<g id="Group_11">
<path id="Vector_10" d="M95.669 91.3414C95.4986 91.364 95.3257 91.3753 95.1548 91.3753C93.2026 91.3753 91.538 89.9139 91.2829 87.976C91.1465 86.9407 91.4215 85.9144 92.0572 85.0859C92.6928 84.2574 93.613 83.7262 94.6483 83.5898C94.8186 83.5674 94.9915 83.5561 95.1622 83.5561C97.1145 83.5561 98.7792 85.0175 99.0343 86.9555C99.3157 89.0925 97.806 91.0599 95.669 91.3414ZM97.3304 87.1798C97.1874 86.0938 96.2553 85.2749 95.1624 85.2749C95.0664 85.2749 94.9689 85.2813 94.8728 85.2939C94.2927 85.3704 93.7771 85.6681 93.4209 86.1323C93.0647 86.5964 92.9106 87.1715 92.987 87.7517C93.13 88.8376 94.062 89.6565 95.1548 89.6565C95.2509 89.6565 95.3484 89.6501 95.4446 89.6374C96.642 89.4797 97.4879 88.3772 97.3304 87.1798Z" fill="black"/>
</g>
</g>
<g id="Group_12">
<g id="Group_13">
<path id="Vector_11" d="M90.001 94.9017L87.3596 95.2495C86.8893 95.3119 86.4574 94.9802 86.3954 94.5097C86.3334 94.0391 86.6647 93.6075 87.1352 93.5455L89.7765 93.1977C89.8146 93.1926 89.8524 93.1902 89.8898 93.1902C90.3144 93.1902 90.6838 93.505 90.7407 93.9375C90.8028 94.408 90.4716 94.8397 90.001 94.9017Z" fill="black"/>
</g>
</g>
<g id="Group_14">
<g id="Group_15">
<path id="Vector_12" d="M88.6616 88.5597L88.4283 90.3321C88.3664 90.8027 87.9348 91.1341 87.4642 91.0719C86.9936 91.01 86.6624 90.5784 86.7244 90.1078L86.9577 88.3354C87.0146 87.9029 87.3839 87.5881 87.8086 87.5881C87.8459 87.5881 87.8838 87.5905 87.9217 87.5956C88.3923 87.6576 88.7235 88.0891 88.6616 88.5597Z" fill="black"/>
</g>
</g>
</g>
<g id="icon-category-sandvich" clip-path="url(#clip2_20162_73)">
<g id="Group_16">
<g id="Group_17">
<g id="Group_18">
<path id="Vector_13" d="M179.8 75.6297H178.333V74.163C178.333 72.948 177.348 71.963 176.133 71.963H174.386L173.325 69.8408C173.079 69.3421 172.57 69.0274 172.013 69.0297H171C170.19 69.0297 169.533 69.6863 169.533 70.4964V71.9631H161.467C160.251 71.9631 159.267 72.948 159.267 74.1631V75.6297H157.8C156.585 75.6297 155.6 76.6147 155.6 77.8297V79.2964C155.6 80.1064 156.257 80.7631 157.067 80.7631H157.144L158.002 88.3398L154.469 87.5097C154.291 87.2354 154.102 86.9634 153.893 86.6964L152.646 81.3306C152.569 80.9988 152.274 80.7638 151.933 80.763H147.72C145.731 79.0111 143.382 78.2191 141.609 78.7404L140.533 77.5671C140.126 77.123 139.487 76.977 138.928 77.2004C138.367 77.4163 137.998 77.9553 138 78.5557V110.844C138.002 112.051 138.979 113.028 140.185 113.03H176.133C176.506 113.029 176.819 112.75 176.861 112.379L180.454 80.763H180.533C181.343 80.763 182 80.1063 182 79.2963V77.8297C182 76.6147 181.015 75.6297 179.8 75.6297ZM171 70.4964H172.013L172.747 71.9631H171V70.4964ZM160.733 74.163C160.733 73.758 161.062 73.4297 161.467 73.4297H176.133C176.538 73.4297 176.867 73.758 176.867 74.163V75.6297H160.733V74.163ZM158.68 90.003L158.726 90.0117L159.319 90.1525L159.716 94.3142C158.564 93.4988 157.186 93.0644 155.775 93.0719C156.047 91.778 155.903 90.4315 155.365 89.2241L158.68 90.003ZM160.113 96.4894L160.122 96.4974C160.388 96.7432 160.64 97.0032 160.878 97.2762C161.75 98.2497 162.392 99.4076 162.754 100.663C162.878 101.101 162.942 101.553 162.944 102.008L156.095 94.5379C157.618 94.7085 159.037 95.3974 160.113 96.4894ZM152.385 87.1694V87.168C153.968 88.9867 154.705 91.1713 154.355 92.6394L146.892 84.5031C148.397 84.1664 150.687 85.2239 152.385 87.1694ZM151.347 82.2297L151.933 84.7267C151.344 84.2668 150.702 83.8793 150.02 83.5724C149.743 83.1036 149.433 82.6549 149.092 82.2297H151.347ZM147.66 82.7753H147.663C147.724 82.845 147.774 82.922 147.832 82.9953C147.144 82.9319 146.451 83.0483 145.821 83.3334L142.806 80.0458C144.28 80.0671 146.204 81.104 147.66 82.7753ZM168.737 111.132C168.624 111.393 168.366 111.563 168.081 111.563H161.467H140.185C139.788 111.563 139.467 111.241 139.467 110.844L139.453 78.5631L154.172 94.6113V94.615L162.817 104.039L162.826 104.05L167.568 109.222C167.585 109.244 167.602 109.266 167.621 109.287L168.605 110.359C168.799 110.567 168.851 110.871 168.737 111.132ZM164.198 103.375C164.332 102.937 164.4 102.481 164.4 102.023C164.785 102.348 165.144 102.703 165.474 103.084C165.883 103.552 166.247 104.059 166.56 104.596C166.988 105.316 167.291 106.104 167.455 106.925L164.198 103.375ZM175.478 111.563H170.136C170.411 110.803 170.237 109.954 169.685 109.363L168.947 108.556C169.092 107.329 168.894 106.085 168.375 104.963H176.229L175.478 111.563ZM176.395 103.496H167.595C167.294 103.013 166.957 102.554 166.586 102.122C165.864 101.284 165.017 100.564 164.074 99.9858C163.643 98.6272 162.931 97.3745 161.984 96.3096C161.764 96.0603 161.544 95.8278 161.313 95.6041L160.733 89.4933C160.704 89.1806 160.478 88.9218 160.172 88.8494L159.523 88.6954L159.369 87.363H178.229L176.395 103.496ZM178.396 85.8964H159.202L158.621 80.7631H178.979L178.396 85.8964ZM180.533 79.2964H157.067V77.8297C157.067 77.4247 157.395 77.0964 157.8 77.0964H179.8C180.205 77.0964 180.533 77.4247 180.533 77.8297V79.2964Z" fill="black"/>
<path id="Vector_14" d="M169.101 101.297C169.142 101.297 169.183 101.291 169.224 101.289C169.235 101.289 169.246 101.297 169.257 101.297C169.294 101.294 169.331 101.289 169.367 101.281C170.515 101.204 171.572 100.632 172.266 99.7133C173.189 98.4151 173.454 96.7598 172.98 95.2385C172.878 94.8587 172.785 94.4861 172.695 94.1261C172.123 91.8329 171.576 89.6703 169.26 89.5728C169.236 89.5728 169.214 89.5684 169.191 89.5684C169.167 89.5684 169.133 89.5633 169.1 89.5633C166.509 89.5633 164.4 92.1952 164.4 95.43C164.4 98.6648 166.509 101.297 169.101 101.297ZM169.668 91.1398C170.426 91.4376 170.76 92.4312 171.272 94.4809C171.364 94.8476 171.459 95.2318 171.565 95.6212C171.916 96.7021 171.745 97.8848 171.101 98.8214C170.867 99.128 170.568 99.3785 170.225 99.5547C170.201 98.2941 169.952 97.0479 169.492 95.8741C169.419 95.6453 169.345 95.4246 169.281 95.2141C168.854 93.8261 169.354 92.0271 169.668 91.1398ZM168.092 91.2498C167.615 92.6662 167.542 94.1875 167.88 95.6432C167.948 95.8632 168.022 96.0913 168.1 96.3281C168.467 97.4472 168.907 98.8002 168.727 99.796C167.12 99.5453 165.866 97.684 165.866 95.4298C165.867 93.4828 166.802 91.8299 168.092 91.2498Z" fill="black"/>
<path id="Vector_15" d="M141.881 107.593L141.363 108.111C141.172 108.296 141.096 108.568 141.163 108.825C141.23 109.081 141.43 109.281 141.687 109.348C141.943 109.415 142.216 109.339 142.4 109.148L142.918 108.63C143.196 108.342 143.192 107.885 142.909 107.602C142.627 107.319 142.169 107.315 141.881 107.593Z" fill="black"/>
<path id="Vector_16" d="M148.893 102.656C149.179 102.37 149.179 101.905 148.893 101.618C148.606 101.332 148.142 101.332 147.855 101.618L147.337 102.137C147.151 102.322 147.079 102.592 147.147 102.845C147.214 103.098 147.412 103.296 147.665 103.364C147.918 103.432 148.188 103.36 148.374 103.174L148.893 102.656Z" fill="black"/>
<path id="Vector_17" d="M142.4 100.778L141.881 101.296C141.691 101.481 141.614 101.753 141.682 102.01C141.749 102.266 141.949 102.466 142.205 102.533C142.462 102.6 142.734 102.524 142.918 102.333L143.437 101.815C143.715 101.527 143.711 101.07 143.428 100.787C143.145 100.504 142.688 100.5 142.4 100.778Z" fill="black"/>
<path id="Vector_18" d="M142.4 95.6446L141.881 96.1631C141.691 96.3473 141.614 96.6199 141.682 96.8763C141.749 97.1327 141.949 97.3329 142.205 97.4C142.462 97.4671 142.734 97.3906 142.918 97.2L143.437 96.6816C143.715 96.3938 143.711 95.9364 143.428 95.6536C143.145 95.3708 142.688 95.3668 142.4 95.6446Z" fill="black"/>
<path id="Vector_19" d="M149 107.593L148.482 108.111C148.291 108.296 148.214 108.568 148.282 108.825C148.349 109.081 148.549 109.281 148.805 109.348C149.062 109.415 149.334 109.339 149.518 109.148L150.037 108.63C150.315 108.342 150.311 107.885 150.028 107.602C149.745 107.319 149.288 107.315 149 107.593Z" fill="black"/>
<path id="Vector_20" d="M154.348 107.593L153.83 108.111C153.639 108.295 153.563 108.568 153.63 108.825C153.697 109.081 153.897 109.281 154.153 109.348C154.41 109.415 154.682 109.339 154.867 109.148L155.385 108.63C155.663 108.342 155.659 107.885 155.376 107.602C155.093 107.319 154.636 107.315 154.348 107.593Z" fill="black"/>
</g>
</g>
</g>
</g>
<g id="icon-category-asia" clip-path="url(#clip3_20162_73)">
<g id="christmas-dinner 2" clip-path="url(#clip4_20162_73)">
<g id="Group_19">
<g id="Group_20">
<path id="Vector_21" d="M222.132 82.5966H224.256C224.808 82.5966 225.256 83.0451 225.256 83.5965V85.0613C225.256 85.4173 225.545 85.7059 225.901 85.7059C226.257 85.7059 226.545 85.4173 226.545 85.0613V83.5965C226.545 82.3343 225.518 81.3075 224.256 81.3075H222.132C221.589 81.3075 221.148 80.8665 221.148 80.3244C221.148 79.7823 221.589 79.3413 222.132 79.3413H226.843C228.096 79.3413 229.115 78.322 229.115 77.0692C229.115 75.8163 228.096 74.7971 226.843 74.7971H223.074C222.718 74.7971 222.429 75.0856 222.429 75.4416C222.429 75.7975 222.718 76.0861 223.074 76.0861H226.843C227.385 76.0861 227.826 76.5272 227.826 77.0692C227.826 77.6113 227.385 78.0523 226.843 78.0523H222.132C220.879 78.0523 219.859 79.0716 219.859 80.3244C219.859 81.5773 220.879 82.5966 222.132 82.5966Z" fill="black"/>
<path id="Vector_22" d="M214.389 86.9223H216.497C217.041 86.9223 217.484 87.3652 217.484 87.9096V89.3633C217.484 89.7193 217.773 90.0079 218.129 90.0079C218.485 90.0079 218.773 89.7193 218.773 89.3633V87.9096C218.773 86.6544 217.752 85.6332 216.497 85.6332H214.389C213.853 85.6332 213.418 85.1978 213.418 84.6627C213.418 84.1275 213.853 83.6921 214.389 83.6921H216.854C217.21 83.6921 217.498 83.4035 217.498 83.0475C217.498 82.6916 217.21 82.403 216.854 82.403H214.389C213.143 82.403 212.129 83.4166 212.129 84.6627C212.129 85.9087 213.143 86.9223 214.389 86.9223Z" fill="black"/>
<path id="Vector_23" d="M232.652 95.8423C233.008 95.8423 233.297 95.5537 233.297 95.1978C233.297 94.8418 233.008 94.5532 232.652 94.5532C232.296 94.5532 232.008 94.8418 232.008 95.1978C232.008 95.5537 232.296 95.8423 232.652 95.8423Z" fill="black"/>
<path id="Vector_24" d="M235.832 97.3032C236.188 97.3032 236.477 97.0147 236.477 96.6587C236.477 96.3027 236.188 96.0142 235.832 96.0142C235.476 96.0142 235.188 96.3027 235.188 96.6587C235.188 97.0147 235.476 97.3032 235.832 97.3032Z" fill="black"/>
<path id="Vector_25" d="M237.723 99.5376C238.079 99.5376 238.367 99.249 238.367 98.8931C238.367 98.5371 238.079 98.2485 237.723 98.2485C237.367 98.2485 237.078 98.5371 237.078 98.8931C237.078 99.249 237.367 99.5376 237.723 99.5376Z" fill="black"/>
<path id="Vector_26" d="M235.059 94.2954C235.415 94.2954 235.703 94.0068 235.703 93.6509C235.703 93.2949 235.415 93.0063 235.059 93.0063C234.703 93.0063 234.414 93.2949 234.414 93.6509C234.414 94.0068 234.703 94.2954 235.059 94.2954Z" fill="black"/>
<path id="Vector_27" d="M232.91 99.9673C233.266 99.9673 233.555 99.6787 233.555 99.3228C233.555 98.9668 233.266 98.6782 232.91 98.6782C232.554 98.6782 232.266 98.9668 232.266 99.3228C232.266 99.6787 232.554 99.9673 232.91 99.9673Z" fill="black"/>
<path id="Vector_28" d="M249.911 91.8408H248.083L248.987 89.9731C250.133 89.7449 251 88.7312 251 87.5187C251 86.2751 250.088 85.241 248.898 85.0485C247.583 82.6793 245.013 80.9 241.897 80.1897V80.1406C241.897 79.7846 241.608 79.496 241.252 79.496C240.957 79.496 240.709 79.6945 240.633 79.965C240.24 79.9144 239.841 79.8815 239.436 79.8648C239.333 79.647 239.112 79.496 238.854 79.496C238.597 79.496 238.376 79.647 238.273 79.8648C237.868 79.8815 237.469 79.9144 237.076 79.9651C237 79.6945 236.752 79.496 236.457 79.496C236.101 79.496 235.812 79.7846 235.812 80.1406V80.1897C232.696 80.9 230.126 82.6794 228.811 85.0485C227.621 85.241 226.709 86.2751 226.709 87.5187C226.709 87.5913 226.712 87.6632 226.718 87.7342C223.743 88.0109 221.069 89.2541 219.063 91.1194H215.014C214.738 91.1194 214.49 91.2433 214.323 91.4378H212.43C212.12 90.6544 211.351 90.1008 210.473 90.1008C209.313 90.1008 208.37 91.0445 208.37 92.2045C208.37 92.3036 208.378 92.4015 208.391 92.4981C207.581 92.7907 207 93.5674 207 94.4773C207 94.8813 207.115 95.2696 207.325 95.602C207.115 95.9345 207 96.3229 207 96.7268C207 97.8868 207.944 98.8305 209.104 98.8305C209.981 98.8305 210.751 98.2769 211.061 97.4935H212.765C212.844 97.7808 213.059 98.0178 213.351 98.1169L215.372 98.8031C215.36 99.0113 215.353 99.2209 215.353 99.432C215.353 99.6308 215.359 99.8287 215.369 100.026C215.053 100.102 214.759 100.233 214.496 100.409C214.064 100.119 213.545 99.9496 212.987 99.9496C211.488 99.9496 210.269 101.169 210.269 102.668C210.269 102.691 210.27 102.713 210.271 102.736H209.517C209.091 102.736 208.714 102.975 208.532 103.36C208.351 103.745 208.406 104.188 208.676 104.516L210.61 106.866C210.817 107.118 211.124 107.263 211.45 107.263H238.71C239.066 107.263 239.355 106.974 239.355 106.618C239.355 106.262 239.066 105.973 238.71 105.973H211.545L209.941 104.025H249.485L247.882 105.973H241.718C241.362 105.973 241.074 106.262 241.074 106.618C241.074 106.974 241.362 107.263 241.718 107.263H247.976C248.303 107.263 248.609 107.118 248.817 106.866L250.75 104.516C251.021 104.188 251.076 103.745 250.894 103.36C250.713 102.975 250.335 102.736 249.91 102.736H249.272C249.905 101.64 250.143 100.341 249.912 99.0644C249.864 98.8 249.657 98.593 249.393 98.5451C247.647 98.229 245.857 98.7878 244.605 100.04C244.528 100.116 244.455 100.196 244.384 100.276C244.015 100.076 243.594 99.96 243.147 99.9512V98.7248H243.835C244.925 98.7248 245.812 97.8381 245.812 96.7482V95.8829H249.911C250.512 95.8829 251 95.3946 251 94.7944V92.9294C251 92.3291 250.512 91.8408 249.911 91.8408ZM213.291 102.736H211.56C211.559 102.713 211.558 102.691 211.558 102.668C211.558 101.88 212.199 101.239 212.987 101.239C213.211 101.239 213.423 101.291 213.611 101.384C213.405 101.766 213.288 102.204 213.288 102.668C213.288 102.691 213.29 102.713 213.291 102.736ZM245.516 100.951C246.359 100.108 247.522 99.6781 248.7 99.7566C248.773 100.842 248.412 101.915 247.695 102.736H246.632L247.513 101.855C247.765 101.604 247.765 101.196 247.513 100.944C247.261 100.692 246.853 100.692 246.602 100.944L245.688 101.857C245.608 101.6 245.489 101.358 245.34 101.14C245.397 101.075 245.455 101.012 245.516 100.951ZM232.503 82.972C233.479 82.3185 234.605 81.8283 235.812 81.5199V82.1832C235.812 82.5392 236.101 82.8277 236.457 82.8277C236.813 82.8277 237.101 82.5392 237.101 82.1832V81.2644C237.466 81.2124 237.837 81.178 238.21 81.1588V82.1832C238.21 82.5392 238.498 82.8277 238.854 82.8277C239.21 82.8277 239.499 82.5392 239.499 82.1832V81.1588C239.872 81.1781 240.242 81.2125 240.608 81.2644V82.1832C240.608 82.5392 240.896 82.8277 241.252 82.8277C241.608 82.8277 241.897 82.5392 241.897 82.1832V81.5199C243.104 81.8283 244.23 82.3185 245.206 82.9721C246.156 83.6088 246.93 84.3777 247.495 85.2281C247.277 85.3239 247.073 85.4499 246.89 85.6031C246.445 85.2304 245.877 85.016 245.283 85.016C244.688 85.016 244.121 85.2303 243.676 85.6031C243.231 85.2304 242.663 85.016 242.069 85.016C241.474 85.016 240.906 85.2303 240.462 85.6031C240.017 85.2304 239.449 85.016 238.854 85.016C238.26 85.016 237.692 85.2303 237.247 85.6031C236.803 85.2304 236.235 85.016 235.64 85.016C235.046 85.016 234.478 85.2303 234.033 85.6031C233.588 85.2304 233.02 85.016 232.426 85.016C231.832 85.016 231.264 85.2304 230.819 85.6031C230.636 85.4499 230.432 85.3239 230.214 85.2281C230.778 84.3776 231.553 83.6087 232.503 82.972ZM229.212 86.3049C229.642 86.3049 230.044 86.5376 230.261 86.912C230.377 87.1108 230.589 87.2332 230.819 87.2332C231.049 87.2332 231.261 87.1109 231.376 86.9121C231.594 86.5376 231.996 86.3049 232.426 86.3049C232.856 86.3049 233.258 86.5376 233.475 86.912C233.591 87.1108 233.803 87.2332 234.033 87.2332C234.263 87.2332 234.475 87.1109 234.591 86.912C234.808 86.5376 235.21 86.3049 235.64 86.3049C236.07 86.3049 236.473 86.5376 236.69 86.9121C236.805 87.1109 237.017 87.2332 237.247 87.2332C237.477 87.2332 237.689 87.1109 237.805 86.912C238.022 86.5376 238.424 86.3049 238.854 86.3049C239.285 86.3049 239.687 86.5376 239.904 86.9121C240.019 87.1109 240.232 87.2332 240.461 87.2332C240.691 87.2332 240.904 87.1109 241.019 86.912C241.236 86.5376 241.638 86.3049 242.069 86.3049C242.499 86.3049 242.901 86.5376 243.118 86.9121C243.234 87.1109 243.446 87.2332 243.676 87.2332C243.906 87.2332 244.118 87.1109 244.233 86.912C244.45 86.5376 244.853 86.3049 245.283 86.3049C245.713 86.3049 246.115 86.5376 246.332 86.9121C246.448 87.1109 246.66 87.2332 246.89 87.2332C247.12 87.2332 247.332 87.1109 247.448 86.912C247.665 86.5376 248.067 86.3049 248.497 86.3049C249.166 86.3049 249.711 86.8494 249.711 87.5186C249.711 88.1879 249.166 88.7323 248.497 88.7323C248.067 88.7323 247.665 88.4997 247.448 88.1253C247.332 87.9265 247.12 87.804 246.89 87.804C246.66 87.804 246.448 87.9264 246.332 88.1252C246.115 88.4997 245.713 88.7323 245.283 88.7323C244.853 88.7323 244.45 88.4997 244.233 88.1253C244.118 87.9265 243.906 87.804 243.676 87.804C243.446 87.804 243.233 87.9264 243.118 88.1252C242.901 88.4997 242.499 88.7323 242.069 88.7323C241.638 88.7323 241.236 88.4997 241.019 88.1253C240.904 87.9265 240.691 87.804 240.461 87.804C240.232 87.804 240.019 87.9264 239.904 88.1252C239.687 88.4997 239.285 88.7323 238.854 88.7323C238.424 88.7323 238.022 88.4997 237.805 88.1253C237.689 87.9265 237.477 87.804 237.247 87.804C237.017 87.804 236.805 87.9264 236.69 88.1252C236.473 88.4997 236.07 88.7323 235.64 88.7323C235.21 88.7323 234.808 88.4997 234.591 88.1253C234.475 87.9265 234.263 87.804 234.033 87.804C233.803 87.804 233.591 87.9264 233.475 88.1253C233.349 88.3441 233.158 88.514 232.936 88.6178C231.422 88.0146 229.757 87.679 228.009 87.6757C228.003 87.6242 227.998 87.572 227.998 87.5186C227.998 86.8494 228.542 86.3049 229.212 86.3049ZM215.392 92.4084H217.864C217.609 92.7247 217.371 93.0525 217.152 93.3922H215.392V92.4084ZM212.733 96.2044H210.557C210.221 96.2044 209.942 96.4615 209.914 96.7956C209.88 97.2139 209.524 97.5414 209.104 97.5414C208.655 97.5414 208.289 97.176 208.289 96.7268C208.289 96.4833 208.397 96.2543 208.585 96.0986C208.733 95.9762 208.819 95.7942 208.819 95.602C208.819 95.4099 208.733 95.2278 208.585 95.1054C208.397 94.9497 208.289 94.7208 208.289 94.4772C208.289 94.028 208.655 93.6626 209.104 93.6626C209.524 93.6626 209.88 93.9902 209.914 94.4084C209.942 94.7425 210.221 94.9996 210.557 94.9996H212.733V96.2044H212.733ZM212.953 93.7106H211.061C210.824 93.1118 210.318 92.6483 209.701 92.4625C209.673 92.3803 209.659 92.2933 209.659 92.2044C209.659 91.7552 210.024 91.3898 210.473 91.3898C210.893 91.3898 211.249 91.7175 211.284 92.1356C211.312 92.4698 211.591 92.7268 211.926 92.7268H214.103V93.3922H213.644C213.368 93.3922 213.121 93.5161 212.953 93.7106ZM217.433 102.736H214.58C214.578 102.713 214.577 102.691 214.577 102.668C214.577 101.88 215.218 101.239 216.006 101.239C216.794 101.239 217.435 101.88 217.435 102.668C217.435 102.691 217.434 102.713 217.433 102.736ZM237.312 102.736H235.068C235.067 102.713 235.066 102.691 235.066 102.668C235.066 101.88 235.707 101.239 236.495 101.239C236.889 101.239 237.246 101.399 237.505 101.658C237.379 101.97 237.309 102.311 237.309 102.668C237.309 102.691 237.311 102.713 237.312 102.736ZM236.495 99.9496C234.996 99.9496 233.776 101.169 233.776 102.668C233.776 102.691 233.778 102.713 233.779 102.736H218.722C218.723 102.713 218.724 102.691 218.724 102.668C218.724 101.395 217.845 100.324 216.661 100.03C216.649 99.8315 216.642 99.6322 216.642 99.432C216.642 99.3662 216.643 99.3008 216.645 99.2353L223.237 101.474C223.681 101.625 224.135 101.699 224.585 101.699C225.435 101.699 226.269 101.434 226.989 100.918C228.091 100.128 228.722 98.8983 228.722 97.5432C228.722 97.0587 228.639 96.5833 228.475 96.1304C228.354 95.7956 227.985 95.6225 227.65 95.7437C227.315 95.8649 227.142 96.2344 227.263 96.5692C227.376 96.881 227.433 97.2087 227.433 97.5431C227.433 98.4774 226.998 99.3253 226.238 99.8695C225.479 100.414 224.536 100.553 223.651 100.253L214.022 96.9832V94.6813H224.571C224.895 94.6813 225.213 94.7354 225.518 94.8423C225.854 94.9602 226.222 94.7832 226.34 94.4472C226.457 94.1112 226.281 93.7435 225.945 93.6257C225.502 93.4708 225.04 93.3921 224.571 93.3921H218.727C220.784 90.7153 224.165 88.9643 227.983 88.9643C234.236 88.9643 239.324 93.6601 239.324 99.4319C239.324 99.6382 239.317 99.8434 239.304 100.048C238.914 100.156 238.56 100.348 238.261 100.604C237.785 100.197 237.169 99.9496 236.495 99.9496ZM241.454 102.736H238.601C238.599 102.713 238.598 102.691 238.598 102.668C238.598 101.88 239.239 101.239 240.027 101.239C240.815 101.239 241.456 101.88 241.456 102.668C241.456 102.691 241.455 102.713 241.454 102.736ZM241.858 100.25C241.756 100.302 241.656 100.36 241.561 100.425C241.275 100.229 240.948 100.087 240.597 100.011C240.607 99.819 240.613 99.6259 240.613 99.4321C240.613 99.1945 240.603 98.9591 240.588 98.7249H241.858V100.25ZM244.523 102.668C244.523 102.691 244.521 102.713 244.52 102.736H242.743C242.744 102.713 242.745 102.691 242.745 102.668C242.745 102.211 242.632 101.78 242.432 101.402C242.63 101.298 242.855 101.239 243.094 101.239C243.882 101.239 244.523 101.88 244.523 102.668ZM244.523 96.7482C244.523 97.1274 244.214 97.4358 243.835 97.4358H240.428C240.33 96.9056 240.196 96.3866 240.024 95.8829H244.523V96.7482ZM249.711 94.5939H239.493C239.246 94.0856 238.96 93.5967 238.64 93.1298H241.375C241.731 93.1298 242.02 92.8412 242.02 92.4852C242.02 92.1293 241.731 91.8407 241.375 91.8407H237.619C237.002 91.1638 236.306 90.552 235.542 90.0192C235.575 90.0205 235.607 90.0214 235.64 90.0214C236.234 90.0214 236.802 89.807 237.247 89.4343C237.692 89.807 238.26 90.0214 238.854 90.0214C239.449 90.0214 240.017 89.807 240.461 89.4343C240.906 89.807 241.474 90.0214 242.069 90.0214C242.663 90.0214 243.231 89.807 243.676 89.4343C244.12 89.807 244.688 90.0214 245.283 90.0214C245.877 90.0214 246.445 89.807 246.89 89.4343C247.105 89.6145 247.349 89.7572 247.611 89.8571L246.651 91.8407H244.383C244.027 91.8407 243.738 92.1293 243.738 92.4852C243.738 92.8412 244.027 93.1298 244.383 93.1298H249.711V94.5939Z" fill="black"/>
</g>
</g>
</g>
</g>
<g id="icon-category-dish" clip-path="url(#clip5_20162_73)">
<g id="Group_21">
<g id="Group_22">
<path id="Vector_29" d="M307.158 83.6872L306.687 82.1556C306.089 80.4159 304.177 79.4847 302.417 80.0758C301.427 80.4083 300.649 81.1769 300.313 82.1556L299.842 83.6872C299.446 84.9788 299.363 86.3445 299.6 87.6737C299.815 88.7928 300.534 89.7543 301.553 90.2867L301.026 101.937C300.955 102.587 301.169 103.236 301.613 103.721C302.567 104.753 304.187 104.825 305.231 103.882C305.288 103.831 305.342 103.777 305.394 103.721C305.828 103.25 306.041 102.62 305.98 101.985L305.45 90.2852C306.468 89.7526 307.185 88.7917 307.401 87.6737C307.637 86.3445 307.554 84.9788 307.158 83.6872ZM305.956 87.4215C305.797 88.2255 305.218 88.8851 304.434 89.1531C304.137 89.2635 303.946 89.5505 303.96 89.8641L304.517 102.1C304.543 102.34 304.463 102.579 304.297 102.757C303.856 103.189 303.145 103.189 302.703 102.757C302.529 102.565 302.45 102.307 302.487 102.052L303.04 89.8641C303.055 89.5505 302.863 89.2635 302.566 89.1531C301.783 88.8851 301.203 88.2255 301.044 87.4215C300.848 86.3179 300.917 85.1842 301.246 84.1119L301.717 82.5796C302.081 81.6061 303.175 81.1088 304.16 81.4689C304.681 81.6592 305.091 82.065 305.284 82.5796L305.754 84.1119C306.083 85.1843 306.152 86.3179 305.956 87.4215Z" fill="black"/>
</g>
</g>
<g id="Group_23">
<g id="Group_24">
<path id="Vector_30" d="M295.8 79.9021C295.395 79.9021 295.067 80.2266 295.067 80.6269V86.8503L293.082 88.8123C292.935 88.957 292.857 89.1564 292.867 89.361L293.508 102.045C293.524 102.319 293.423 102.587 293.231 102.784C292.83 103.184 292.176 103.187 291.771 102.79C291.769 102.788 291.767 102.786 291.764 102.784C291.572 102.587 291.472 102.319 291.487 102.045L292.133 89.361C292.144 89.1565 292.066 88.9571 291.919 88.8123L289.933 86.8503V80.6269C289.933 80.2266 289.605 79.9021 289.2 79.9021C288.795 79.9021 288.467 80.2266 288.467 80.6269V87.1503C288.467 87.3426 288.544 87.5269 288.682 87.6628L290.651 89.6104L290.026 101.975C289.959 103.326 291.013 104.474 292.379 104.54C293.746 104.606 294.908 103.564 294.974 102.213C294.978 102.134 294.978 102.055 294.974 101.975L294.349 89.6105L296.318 87.6629C296.456 87.527 296.533 87.3427 296.533 87.1504V80.627C296.533 80.2266 296.205 79.9021 295.8 79.9021Z" fill="black"/>
</g>
</g>
<g id="Group_25">
<g id="Group_26">
<path id="Vector_31" d="M291.4 79.9021C290.995 79.9021 290.667 80.2266 290.667 80.6269V86.4255C290.667 86.8258 290.995 87.1503 291.4 87.1503C291.805 87.1503 292.133 86.8258 292.133 86.4255V80.6269C292.133 80.2266 291.805 79.9021 291.4 79.9021Z" fill="black"/>
</g>
</g>
<g id="Group_27">
<g id="Group_28">
<path id="Vector_32" d="M293.6 79.9021C293.195 79.9021 292.867 80.2266 292.867 80.6269V86.4255C292.867 86.8258 293.195 87.1503 293.6 87.1503C294.005 87.1503 294.333 86.8258 294.333 86.4255V80.6269C294.333 80.2266 294.005 79.9021 293.6 79.9021Z" fill="black"/>
</g>
</g>
<g id="Group_29">
<g id="Group_30">
<path id="Vector_33" d="M298 69.0298C285.85 69.0298 276 78.7652 276 90.7745C276 102.784 285.85 112.519 298 112.519C310.15 112.519 320 102.784 320 90.7745C319.986 78.7709 310.145 69.0434 298 69.0298ZM298 111.07C286.66 111.07 277.467 101.983 277.467 90.7745C277.467 79.5658 286.66 70.4794 298 70.4794C309.34 70.4794 318.533 79.5658 318.533 90.7745C318.52 101.978 309.335 111.057 298 111.07Z" fill="black"/>
</g>
</g>
<g id="Group_31">
<g id="Group_32">
<path id="Vector_34" d="M300.38 104.381C300.341 103.982 299.982 103.691 299.579 103.729C299.57 103.73 299.56 103.731 299.551 103.733L299.554 103.732C298.521 103.851 297.478 103.851 296.446 103.732C296.044 103.685 295.679 103.97 295.632 104.368C295.585 104.766 295.873 105.126 296.275 105.173C297.42 105.305 298.577 105.305 299.722 105.173C300.125 105.134 300.42 104.779 300.38 104.381Z" fill="black"/>
</g>
</g>
<g id="Group_33">
<g id="Group_34">
<path id="Vector_35" d="M309.22 81.4344C308.96 81.1277 308.497 81.0876 308.187 81.3449C308.186 81.3457 308.185 81.3466 308.184 81.3474C307.874 81.6055 307.835 82.0626 308.096 82.3687C312.518 87.5566 312.179 95.2279 307.318 100.016C307.031 100.299 307.03 100.758 307.316 101.041C307.602 101.325 308.066 101.326 308.353 101.043C313.756 95.7235 314.133 87.1994 309.22 81.4344Z" fill="black"/>
</g>
</g>
<g id="Group_35">
<g id="Group_36">
<g id="Group_37">
<path id="Vector_36" d="M293.086 78.6114C293.085 78.6114 293.085 78.6104 293.085 78.6104C293.084 78.6104 293.083 78.6114 293.082 78.6114H293.086Z" fill="black"/>
<path id="Vector_37" d="M301.459 76.6832C298.593 76.0043 295.587 76.1868 292.827 77.2072C292.448 77.3481 292.256 77.7662 292.399 78.1408C292.506 78.4232 292.779 78.6101 293.085 78.6104C293.172 78.61 293.259 78.5941 293.341 78.5634C295.827 77.6446 298.534 77.4805 301.114 78.0923C301.508 78.1863 301.904 77.9472 302 77.5581C302.095 77.1689 301.853 76.7772 301.459 76.6832Z" fill="black"/>
</g>
</g>
</g>
<g id="Group_38">
<g id="Group_39">
<path id="Vector_38" d="M288.649 99.9797C286.177 97.5404 284.792 94.2272 284.8 90.7745C284.793 88.016 285.677 85.3273 287.323 83.1001C287.567 82.78 287.502 82.3257 287.178 82.0851C286.854 81.8446 286.394 81.909 286.151 82.229C286.147 82.2347 286.142 82.2404 286.138 82.2462C281.898 88.0075 282.522 95.9598 287.61 101.006C287.897 101.29 288.362 101.29 288.649 101.006C288.936 100.723 288.936 100.263 288.649 99.9797Z" fill="black"/>
</g>
</g>
</g>
<g id="icon-timer">
<g id="Time">
<g id="stopwatch 1" clip-path="url(#clip6_20162_73)">
<g id="XMLID_981_">
<g id="XMLID_290_">
<g id="XMLID_291_">
<path id="XMLID_292_" d="M35.7543 148.911L36.7503 147.915C37.0383 147.627 37.1969 147.244 37.1969 146.837C37.1969 146.43 37.0383 146.047 36.7504 145.759L35.6096 144.619C35.3217 144.331 34.9389 144.172 34.5318 144.172C34.1246 144.172 33.7418 144.331 33.454 144.619L32.4579 145.615C31.1434 144.709 29.6517 144.043 28.046 143.681V142.209H28.6521C29.4727 142.209 30.1403 141.542 30.1403 140.721V138.651C30.1403 137.83 29.4727 137.162 28.6521 137.162H21.8004C20.9798 137.162 20.3122 137.83 20.3122 138.651V140.721C20.3122 141.542 20.9798 142.209 21.8004 142.209H22.4064V143.685C20.8081 144.049 19.3231 144.713 18.0137 145.615L17.0177 144.619C16.7299 144.331 16.347 144.172 15.94 144.172C15.5327 144.172 15.15 144.331 14.8621 144.619L13.7213 145.759C13.1271 146.354 13.1271 147.321 13.7213 147.915L13.8979 148.092H9.19077C8.82407 148.092 8.52671 148.389 8.52671 148.756C8.52671 149.122 8.82407 149.42 9.19077 149.42H14.3845C13.8897 150.217 13.48 151.072 13.1686 151.972H4.66406C4.29737 151.972 4 152.269 4 152.636C4 153.003 4.29737 153.3 4.66406 153.3H12.789C12.6017 154.124 12.4942 154.978 12.4752 155.853H8.24999C7.8833 155.853 7.58593 156.15 7.58593 156.517C7.58593 156.884 7.8833 157.181 8.24999 157.181H12.5149C12.5867 158.06 12.748 158.913 12.9895 159.733H7.32031C6.95361 159.733 6.65624 160.031 6.65624 160.397C6.65624 160.764 6.95361 161.061 7.32031 161.061H13.4618C15.3938 165.66 19.9436 168.897 25.2358 168.897C32.274 168.897 38 163.171 38 156.133C38 153.454 37.1699 150.966 35.7543 148.911ZM34.3931 145.558C34.4406 145.51 34.4947 145.5 34.5318 145.5C34.5689 145.5 34.623 145.51 34.6705 145.558L35.8113 146.698C35.8588 146.746 35.8688 146.8 35.8688 146.837C35.8688 146.874 35.8588 146.928 35.8112 146.976L34.9382 147.849C34.5031 147.34 34.0288 146.866 33.52 146.431L34.3931 145.558ZM21.6403 140.721V138.651C21.6403 138.562 21.7122 138.49 21.8004 138.49H28.6521C28.7403 138.49 28.8122 138.562 28.8122 138.651V140.721C28.8122 140.809 28.7403 140.881 28.6521 140.881H27.382H23.0704H21.8004C21.7122 140.881 21.6403 140.809 21.6403 140.721ZM23.7345 142.209H26.7179V143.455C26.2315 143.399 25.7372 143.369 25.2359 143.369C24.7279 143.369 24.2272 143.4 23.7346 143.458L23.7345 142.209ZM14.6604 146.698L15.8012 145.558C15.8486 145.51 15.9028 145.5 15.9399 145.5C15.9769 145.5 16.0311 145.51 16.0786 145.558L16.9516 146.431C16.4428 146.866 15.9686 147.34 15.5335 147.849L14.6604 146.976C14.5839 146.899 14.5839 146.775 14.6604 146.698ZM25.2358 167.569C18.93 167.569 13.7997 162.439 13.7997 156.133C13.7997 149.827 18.93 144.697 25.2358 144.697C31.5417 144.697 36.6719 149.827 36.6719 156.133C36.6719 162.439 31.5417 167.569 25.2358 167.569Z" fill="black"/>
<path id="XMLID_899_" d="M29.6188 150.811L26.4797 153.95C26.1126 153.74 25.6881 153.619 25.2358 153.619C23.8497 153.619 22.722 154.747 22.722 156.133C22.722 157.519 23.8497 158.647 25.2358 158.647C26.6219 158.647 27.7495 157.519 27.7495 156.133C27.7495 155.681 27.6288 155.256 27.4188 154.889L30.5579 151.75C30.8172 151.491 30.8172 151.07 30.5579 150.811C30.2985 150.552 29.8782 150.552 29.6188 150.811ZM25.2358 157.319C24.582 157.319 24.0502 156.787 24.0502 156.133C24.0502 155.479 24.5821 154.947 25.2358 154.947C25.8895 154.947 26.4214 155.479 26.4214 156.133C26.4214 156.787 25.8896 157.319 25.2358 157.319Z" fill="black"/>
<path id="XMLID_900_" d="M25.2361 147.523C25.4107 147.523 25.5821 147.452 25.7055 147.329C25.829 147.205 25.9001 147.034 25.9001 146.859C25.9001 146.685 25.8291 146.513 25.7055 146.39C25.5821 146.266 25.4107 146.195 25.2361 146.195C25.0614 146.195 24.8901 146.266 24.7666 146.39C24.6431 146.513 24.572 146.685 24.572 146.859C24.572 147.035 24.643 147.205 24.7666 147.329C24.8902 147.452 25.0614 147.523 25.2361 147.523Z" fill="black"/>
<path id="XMLID_901_" d="M25.2361 164.743C25.0614 164.743 24.8901 164.814 24.7666 164.937C24.6431 165.061 24.572 165.232 24.572 165.407C24.572 165.582 24.643 165.753 24.7666 165.876C24.8901 166 25.0614 166.071 25.2361 166.071C25.4107 166.071 25.5821 166 25.7055 165.876C25.829 165.753 25.9001 165.581 25.9001 165.407C25.9001 165.232 25.8291 165.061 25.7055 164.937C25.5821 164.814 25.4107 164.743 25.2361 164.743Z" fill="black"/>
<path id="XMLID_902_" d="M18.6784 148.911C18.5038 148.911 18.3324 148.982 18.2089 149.106C18.0854 149.229 18.0143 149.401 18.0143 149.575C18.0143 149.751 18.0853 149.921 18.2089 150.045C18.3324 150.169 18.5038 150.239 18.6784 150.239C18.8531 150.239 19.0244 150.169 19.1478 150.045C19.2713 149.921 19.3425 149.751 19.3425 149.575C19.3425 149.401 19.2714 149.23 19.1478 149.106C19.0244 148.982 18.8531 148.911 18.6784 148.911Z" fill="black"/>
<path id="XMLID_903_" d="M31.7937 162.026C31.6183 162.026 31.4477 162.098 31.3235 162.221C31.2 162.345 31.1296 162.516 31.1296 162.691C31.1296 162.865 31.2 163.037 31.3235 163.16C31.4477 163.284 31.6183 163.355 31.7937 163.355C31.9683 163.355 32.1397 163.284 32.2631 163.16C32.3866 163.037 32.4578 162.865 32.4578 162.691C32.4578 162.516 32.3867 162.345 32.2631 162.221C32.1397 162.098 31.9683 162.026 31.7937 162.026Z" fill="black"/>
<path id="XMLID_904_" d="M18.6784 162.026C18.5038 162.026 18.3324 162.098 18.2089 162.221C18.0854 162.345 18.0143 162.516 18.0143 162.691C18.0143 162.865 18.0853 163.037 18.2089 163.16C18.3325 163.284 18.5038 163.355 18.6784 163.355C18.8531 163.355 19.0244 163.284 19.1478 163.16C19.2713 163.037 19.3425 162.865 19.3425 162.691C19.3425 162.516 19.2714 162.345 19.1478 162.221C19.0244 162.098 18.8531 162.026 18.6784 162.026Z" fill="black"/>
<path id="XMLID_905_" d="M15.9625 155.469C15.7872 155.469 15.6165 155.54 15.493 155.663C15.3689 155.787 15.2984 155.958 15.2984 156.133C15.2984 156.308 15.3689 156.479 15.493 156.602C15.6165 156.727 15.7872 156.797 15.9625 156.797C16.1371 156.797 16.3084 156.727 16.432 156.602C16.5554 156.479 16.6265 156.308 16.6265 156.133C16.6265 155.958 16.5555 155.787 16.432 155.663C16.3084 155.54 16.1371 155.469 15.9625 155.469Z" fill="black"/>
<path id="XMLID_906_" d="M34.9791 155.663C34.8556 155.54 34.6842 155.469 34.5096 155.469C34.3343 155.469 34.1636 155.54 34.0402 155.663C33.9166 155.787 33.8455 155.958 33.8455 156.133C33.8455 156.308 33.9166 156.479 34.0402 156.602C34.1636 156.726 34.3349 156.797 34.5096 156.797C34.6842 156.797 34.8556 156.726 34.9791 156.602C35.1026 156.479 35.1736 156.308 35.1736 156.133C35.1736 155.958 35.1026 155.787 34.9791 155.663Z" fill="black"/>
<path id="XMLID_912_" d="M4.66406 159.734C4.48941 159.734 4.31809 159.804 4.19457 159.927C4.07105 160.052 4 160.222 4 160.398C4 160.572 4.07099 160.743 4.19457 160.867C4.31809 160.991 4.48941 161.062 4.66406 161.062C4.83871 161.062 5.01004 160.991 5.13349 160.867C5.257 160.744 5.32812 160.572 5.32812 160.398C5.32812 160.222 5.25707 160.051 5.13349 159.927C5.01004 159.804 4.83871 159.734 4.66406 159.734Z" fill="black"/>
<path id="XMLID_916_" d="M34.3142 154.117C34.6656 154.012 34.8657 153.642 34.761 153.291C34.2915 151.715 33.425 150.266 32.2553 149.099C31.0853 147.931 29.6336 147.068 28.057 146.602C27.7054 146.498 27.3359 146.699 27.232 147.05C27.128 147.402 27.3288 147.771 27.6806 147.875C30.4825 148.704 32.6536 150.87 33.4882 153.67C33.574 153.958 33.8382 154.145 34.1243 154.145C34.187 154.145 34.2509 154.136 34.3142 154.117Z" fill="black"/>
</g>
</g>
</g>
</g>
</g>
</g>
<g id="icon-delivery">
<g id="Men">
<g id="delivery 1">
<g id="Outline">
<path id="Vector_39" d="M69.5176 159.499L69.9252 160.469C70.2127 160.351 70.5122 160.264 70.8184 160.209L70.6284 159.175C70.2476 159.244 69.8752 159.352 69.5176 159.499Z" fill="black"/>
<path id="Vector_40" d="M66.7268 162.105L67.6831 162.563C68.014 161.888 68.5174 161.311 69.1435 160.887L68.5439 160.02C67.7649 160.547 67.1385 161.266 66.7268 162.105Z" fill="black"/>
<path id="Vector_41" d="M95.9375 161.81C95.9381 160.905 95.6008 160.033 94.9904 159.359L94.1987 160.059C94.5128 160.406 94.7279 160.829 94.8219 161.284H91.1562C91.0688 161.284 90.9827 161.306 90.9056 161.347C90.8285 161.387 90.7628 161.446 90.7142 161.518L88.747 164.435H87.4375V162.86C87.4386 161.885 87.8308 160.951 88.5279 160.262C89.2251 159.573 90.1703 159.185 91.1562 159.184H92.2188C92.7412 159.183 93.2521 159.335 93.6871 159.621L94.2755 158.747C93.8167 158.445 93.2955 158.249 92.75 158.172V156.559C92.75 156.419 92.694 156.286 92.5944 156.187C92.4948 156.089 92.3596 156.034 92.2188 156.034C91.6554 156.033 91.1152 155.812 90.7168 155.418C90.3185 155.024 90.0944 154.49 90.0938 153.933V151.833H91.6875C91.8284 151.833 91.9635 151.778 92.0632 151.679C92.1628 151.581 92.2188 151.447 92.2188 151.308V147.632C92.2188 147.493 92.1628 147.36 92.0632 147.261C91.9635 147.163 91.8284 147.107 91.6875 147.107H90.7505C90.5285 147.108 90.3076 147.138 90.0938 147.197V146.582C90.0938 146.463 90.0527 146.347 89.9773 146.254L88.2392 144.106C88.4669 143.727 88.5488 143.279 88.4699 142.844C88.391 142.41 88.1566 142.018 87.8095 141.741C87.4624 141.463 87.0259 141.318 86.5796 141.332C86.1333 141.347 85.7071 141.519 85.379 141.818C85.0508 142.118 84.8425 142.524 84.7922 142.962C84.7419 143.401 84.853 143.842 85.105 144.207C85.3571 144.571 85.7334 144.833 86.1651 144.946C86.5968 145.059 87.0551 145.014 87.4563 144.82L89.0312 146.766V147.429L86.6957 146.659C86.5427 146.607 86.3819 146.581 86.2201 146.582H81.8381L79.316 143.674C79.527 143.529 79.6994 143.336 79.8185 143.111C79.9377 142.886 79.9999 142.635 80 142.381V142.181L80.7689 141.801C80.8362 141.768 80.8957 141.721 80.9432 141.663C80.9908 141.605 81.0254 141.538 81.0447 141.466C81.064 141.394 81.0677 141.319 81.0553 141.245C81.043 141.172 81.015 141.102 80.9733 141.04L80.1007 139.746C80.2218 139.723 80.3311 139.659 80.4096 139.565C80.4882 139.471 80.5312 139.353 80.5312 139.231C80.5303 138.396 80.1941 137.595 79.5966 137.004C78.999 136.414 78.1888 136.081 77.3438 136.081C76.3433 136.081 75.417 136.365 74.728 137.117C74.4295 137.444 74.2034 137.828 74.0641 138.246C73.9249 138.664 73.8757 139.107 73.9196 139.544L74.0333 140.668C74.0812 141.152 74.3153 141.599 74.6875 141.918V151.833C74.6872 152.202 74.7859 152.564 74.9734 152.883H74.1562C73.9753 152.883 73.7956 152.914 73.625 152.973V146.057C73.6245 145.639 73.4565 145.239 73.1577 144.944C72.8589 144.648 72.4538 144.482 72.0312 144.482H65.6563C65.2337 144.482 64.8286 144.648 64.5298 144.944C64.231 145.239 64.063 145.639 64.0625 146.057V148.682H65.125V147.632H72.5625V152.883H65.125V149.733H64.0625V154.02C64.0624 154.266 64.1497 154.504 64.3091 154.693C64.4686 154.882 64.6901 155.01 64.9349 155.053L69.9062 155.947V157.179C69.4558 157.282 69.016 157.426 68.5923 157.609H65.6563C65.5154 157.609 65.3802 157.664 65.2806 157.763C65.181 157.861 65.125 157.995 65.125 158.134V160.626C64.4309 161.778 64.0638 163.094 64.0625 164.435C64.0625 164.574 64.1185 164.708 64.2181 164.806C64.3177 164.905 64.4529 164.96 64.5938 164.96H67.0289C67.3464 165.736 67.891 166.4 68.593 166.868C69.2949 167.335 70.1222 167.585 70.9688 167.585C71.8153 167.585 72.6426 167.335 73.3445 166.868C74.0465 166.4 74.5911 165.736 74.9086 164.96H83.8409C84.211 164.96 84.577 164.883 84.9154 164.735C85.2539 164.587 85.5574 164.371 85.8066 164.101L86.375 163.483V164.96C86.375 165.099 86.431 165.233 86.5306 165.331C86.6302 165.43 86.7654 165.485 86.9062 165.485H88.007C88.4748 166.286 89.1969 166.912 90.0612 167.266C90.9255 167.619 91.8838 167.681 92.7875 167.442C93.6912 167.203 94.4897 166.675 95.0592 165.942C95.6287 165.208 95.9375 164.309 95.9375 163.385C95.9379 162.983 95.8796 162.583 95.7644 162.197C95.819 162.148 95.8626 162.088 95.8924 162.021C95.9222 161.955 95.9375 161.882 95.9375 161.81ZM85.8438 143.169C85.8438 143.013 85.8905 142.861 85.978 142.732C86.0656 142.602 86.1901 142.501 86.3357 142.441C86.4813 142.382 86.6415 142.366 86.7961 142.397C86.9507 142.427 87.0927 142.502 87.2041 142.612C87.3155 142.722 87.3914 142.863 87.4222 143.015C87.4529 143.168 87.4372 143.327 87.3768 143.471C87.3165 143.614 87.2144 143.737 87.0833 143.824C86.9523 143.911 86.7982 143.957 86.6406 143.957C86.4293 143.957 86.2268 143.873 86.0774 143.726C85.928 143.578 85.844 143.378 85.8438 143.169ZM78.2436 161.81C77.7233 161.809 77.2245 161.604 76.8566 161.241C76.4888 160.877 76.2818 160.384 76.2812 159.87C76.2812 159.354 76.4131 158.872 76.7607 158.476C77.0705 158.123 77.4982 157.892 77.9658 157.826C78.5302 157.746 79.0467 157.468 79.4204 157.042C79.794 156.617 79.9998 156.072 80 155.509C80.0001 155.44 79.9864 155.371 79.9597 155.307C79.9329 155.244 79.8937 155.186 79.8443 155.137C79.9346 154.951 79.9867 154.748 79.9978 154.542C80.0088 154.335 79.9785 154.128 79.9086 153.933H81.3515L79.0202 159.924C78.9639 160.068 78.9358 160.222 78.9375 160.377V161.81H78.2436ZM80 160.759H82.6562C82.7702 160.759 82.8811 160.796 82.9725 160.863C83.064 160.93 83.1312 161.025 83.1642 161.132C83.1972 161.24 83.1943 161.355 83.1559 161.462C83.1175 161.568 83.0456 161.659 82.9509 161.721C82.8174 161.779 82.6732 161.809 82.5274 161.81H80V160.759ZM84.1226 160.668C84.017 160.423 83.8507 160.209 83.6391 160.045C83.4275 159.881 83.1776 159.773 82.9123 159.73L85.1124 154.494C85.3079 154.029 85.3843 153.523 85.3347 153.022C85.285 152.52 85.111 152.039 84.828 151.62C84.545 151.201 84.1618 150.857 83.7123 150.62C83.2628 150.382 82.7609 150.258 82.2512 150.258H80V149.425L80.1556 149.579C80.2049 149.628 80.2635 149.666 80.3279 149.693C80.3924 149.719 80.4615 149.733 80.5312 149.733H85.9351C85.85 149.97 85.8238 150.225 85.8588 150.474C85.8938 150.724 85.9888 150.962 86.1361 151.167C86.2833 151.373 86.4783 151.541 86.7048 151.657C86.9312 151.773 87.1825 151.833 87.4375 151.833H87.439C87.0927 152.287 86.9056 152.84 86.9062 153.408V157.482C86.9054 157.76 86.7936 158.027 86.595 158.224L84.1226 160.668ZM87.4375 150.783C87.3324 150.783 87.2297 150.752 87.1424 150.694C87.055 150.637 86.9869 150.555 86.9467 150.459C86.9065 150.363 86.896 150.257 86.9165 150.155C86.937 150.053 86.9876 149.96 87.0618 149.886C87.1361 149.813 87.2308 149.763 87.3339 149.743C87.4369 149.722 87.5437 149.733 87.6408 149.773C87.7379 149.812 87.8208 149.88 87.8792 149.966C87.9376 150.052 87.9688 150.154 87.9688 150.258C87.9686 150.397 87.9126 150.53 87.813 150.629C87.7134 150.727 87.5783 150.783 87.4375 150.783ZM91.1562 148.157V150.783H90.0938V148.321C90.2958 148.214 90.5213 148.158 90.7505 148.157H91.1562ZM89.0312 150.258C89.0313 150.006 88.9702 149.757 88.853 149.534C88.7358 149.31 88.566 149.117 88.3578 148.971C88.1496 148.826 87.9091 148.732 87.6565 148.697C87.4039 148.663 87.1466 148.689 86.9062 148.773V147.836L89.0312 148.536V150.258ZM81.5938 147.632H85.8438V148.682H80.7513L77.7194 145.686L76.9681 146.428L78.9375 148.375V150.258H75.75V143.957H78.1619L81.1904 147.449C81.2403 147.507 81.3021 147.553 81.3718 147.584C81.4414 147.616 81.5171 147.632 81.5938 147.632ZM75.5158 137.822C76.0014 137.291 76.6459 137.131 77.3438 137.131C77.8147 137.131 78.2722 137.286 78.6446 137.571C79.0169 137.856 79.2832 138.255 79.4015 138.706H77.3438C77.2029 138.706 77.0677 138.761 76.9681 138.86C76.8685 138.958 76.8125 139.092 76.8125 139.231V140.478C76.8117 140.696 76.7262 140.906 76.5737 141.064C76.4211 141.222 76.2131 141.316 75.9925 141.327C75.7718 141.338 75.5553 141.265 75.3875 141.123C75.2197 140.981 75.1135 140.781 75.0906 140.563L74.9769 139.44C74.9458 139.148 74.9777 138.853 75.0706 138.574C75.1635 138.295 75.3152 138.038 75.5158 137.822ZM75.9492 142.381C76.4598 142.381 76.9493 142.18 77.3104 141.823C77.6714 141.467 77.8745 140.983 77.875 140.478V139.756H78.9375C78.9375 139.86 78.9685 139.961 79.0267 140.047L79.7554 141.128L79.2308 141.387C79.1427 141.431 79.0686 141.498 79.0168 141.581C78.9649 141.663 78.9375 141.759 78.9375 141.856V142.381C78.9373 142.521 78.8813 142.654 78.7817 142.753C78.6821 142.851 78.5471 142.906 78.4062 142.907H75.75V142.371C75.8162 142.378 75.8827 142.381 75.9492 142.381ZM75.75 151.833V151.308H82.2512C82.5861 151.308 82.9159 151.39 83.2112 151.546C83.5065 151.702 83.7584 151.928 83.9443 152.203C84.1302 152.478 84.2446 152.795 84.2771 153.124C84.3097 153.454 84.2595 153.786 84.1311 154.092L81.7704 159.709H80.2423L82.6209 153.597C82.6518 153.517 82.6627 153.431 82.6526 153.347C82.6425 153.262 82.6117 153.181 82.5629 153.111C82.5141 153.041 82.4487 152.983 82.3724 152.944C82.2961 152.904 82.2112 152.883 82.125 152.883H76.8125C76.5308 152.883 76.2608 152.772 76.0616 152.575C75.8624 152.378 75.7503 152.111 75.75 151.833ZM74.1562 153.933H78.4062C78.5471 153.933 78.6823 153.989 78.7819 154.087C78.8815 154.186 78.9375 154.319 78.9375 154.458C78.9375 154.598 78.8815 154.731 78.7819 154.83C78.6823 154.928 78.5471 154.983 78.4062 154.983H74.1562C74.0154 154.983 73.8802 154.928 73.7806 154.83C73.681 154.731 73.625 154.598 73.625 154.458C73.625 154.319 73.681 154.186 73.7806 154.087C73.8802 153.989 74.0154 153.933 74.1562 153.933ZM65.125 146.582V146.057C65.1252 145.918 65.1812 145.784 65.2808 145.686C65.3804 145.588 65.5154 145.532 65.6563 145.532H72.0312C72.1721 145.532 72.3071 145.588 72.4067 145.686C72.5063 145.784 72.5623 145.918 72.5625 146.057V146.582H65.125ZM65.125 153.933H72.5625V154.983H70.4854L65.125 154.02V153.933ZM66.8443 158.659C66.6137 158.844 66.3944 159.043 66.1875 159.253V158.659H66.8443ZM70.9688 166.535C70.4098 166.533 69.8612 166.386 69.3772 166.11C68.8932 165.834 68.4905 165.437 68.209 164.96H69.5645C69.9522 165.298 70.4516 165.485 70.9688 165.485C71.4859 165.485 71.9853 165.298 72.373 164.96H73.7285C73.447 165.437 73.0443 165.834 72.5603 166.11C72.0763 166.386 71.5277 166.533 70.9688 166.535ZM85.0203 163.395C84.8708 163.557 84.6887 163.687 84.4856 163.775C84.2825 163.864 84.063 163.91 83.8409 163.91H65.147C65.2612 162.539 65.8196 161.241 66.7392 160.209C67.6588 159.176 68.8907 158.465 70.252 158.179C70.3893 158.149 70.5294 158.134 70.6699 158.134H74.1562V157.084H70.9688V156.034H78.8246C78.7346 156.233 78.5948 156.407 78.4182 156.539C78.2417 156.671 78.0342 156.756 77.8152 156.787C77.0946 156.889 76.4353 157.244 75.9579 157.788C75.4438 158.373 75.2188 159.105 75.2188 159.87C75.2183 160.582 75.4757 161.27 75.9444 161.81H71.5V162.86H82.5274C83.0902 162.856 83.6292 162.635 84.03 162.245L87.3463 158.967C87.7435 158.572 87.9671 158.038 87.9688 157.482V153.408C87.9691 153.083 88.0715 152.765 88.2617 152.499C88.4519 152.233 88.7207 152.032 89.0312 151.923V153.933C89.0322 154.678 89.2993 155.398 89.7854 155.966C90.2714 156.535 90.9452 156.915 91.6875 157.04V158.134C91.3577 158.134 91.0202 158.114 90.6923 158.157C89.6985 158.254 88.7603 158.656 88.0089 159.306C87.2576 159.956 86.7306 160.823 86.5016 161.783L85.0203 163.395ZM91.4405 162.335H91.4675L92.1087 162.968C92.2202 163.079 92.2829 163.229 92.2832 163.385C92.2832 163.501 92.2482 163.615 92.1828 163.712C92.1173 163.809 92.0243 163.884 91.9155 163.929C91.8066 163.973 91.6868 163.985 91.5713 163.962C91.4557 163.94 91.3496 163.883 91.2663 163.801L90.7773 163.318L91.4405 162.335ZM91.6875 166.535C91.2272 166.534 90.7726 166.434 90.3546 166.244C89.9366 166.053 89.5651 165.776 89.2653 165.431C89.3494 165.39 89.4212 165.328 89.4733 165.251L89.9338 164.569C90.1896 164.94 90.5589 165.22 90.9875 165.368C91.4161 165.516 91.8815 165.524 92.3153 165.392C92.7492 165.259 93.1287 164.993 93.3981 164.632C93.6676 164.271 93.8128 163.834 93.8125 163.385C93.8133 163.074 93.7432 162.766 93.6074 162.486C93.5826 162.434 93.5553 162.384 93.5266 162.335H94.6934C94.863 162.81 94.9148 163.318 94.8446 163.818C94.7743 164.317 94.584 164.792 94.2896 165.203C93.9952 165.615 93.6052 165.95 93.1525 166.182C92.6997 166.414 92.1974 166.535 91.6875 166.535Z" fill="black"/>
<path id="Vector_42" d="M67.25 148.682H66.1875V151.832H67.25V148.682Z" fill="black"/>
</g>
</g>
</g>
</g>
<g id="icon-restorant">
<g id="Resturent">
<g id="shop 1">
<path id="Vector_43" d="M154.406 164.186H150.688V153.514C151.016 153.446 151.326 153.308 151.596 153.109C151.865 152.909 152.088 152.654 152.249 152.359C152.41 152.065 152.505 151.739 152.527 151.405C152.55 151.07 152.499 150.734 152.378 150.421L150.688 146.025V137.624C150.688 137.554 150.674 137.485 150.647 137.42C150.62 137.356 150.581 137.297 150.532 137.248C150.483 137.199 150.424 137.159 150.36 137.133C150.295 137.106 150.226 137.092 150.156 137.092H127.844C127.774 137.092 127.705 137.106 127.64 137.133C127.576 137.159 127.517 137.199 127.468 137.248C127.419 137.297 127.38 137.356 127.353 137.42C127.326 137.485 127.312 137.554 127.312 137.624V146.025L125.622 150.421C125.501 150.734 125.45 151.07 125.473 151.405C125.495 151.739 125.59 152.065 125.751 152.359C125.912 152.654 126.135 152.909 126.404 153.109C126.674 153.308 126.984 153.446 127.312 153.514V164.186H123.594C123.524 164.186 123.455 164.2 123.39 164.226C123.326 164.253 123.267 164.292 123.218 164.342C123.169 164.391 123.13 164.45 123.103 164.514C123.076 164.578 123.062 164.648 123.063 164.717V168.436C123.062 168.506 123.076 168.575 123.103 168.639C123.13 168.704 123.169 168.762 123.218 168.812C123.267 168.861 123.326 168.9 123.39 168.927C123.455 168.954 123.524 168.967 123.594 168.967H154.406C154.476 168.967 154.545 168.954 154.61 168.927C154.674 168.9 154.733 168.861 154.782 168.812C154.831 168.762 154.87 168.704 154.897 168.639C154.924 168.575 154.938 168.506 154.938 168.436V164.717C154.938 164.648 154.924 164.578 154.897 164.514C154.87 164.45 154.831 164.391 154.782 164.342C154.733 164.292 154.674 164.253 154.61 164.226C154.545 164.2 154.476 164.186 154.406 164.186ZM148.562 164.186V152.855C148.853 153.156 149.221 153.373 149.625 153.481V164.186H148.562ZM144.312 164.717V167.905H142.188V164.186H143.25C143.391 164.186 143.526 164.13 143.626 164.03C143.725 163.931 143.781 163.796 143.781 163.655V162.061C143.781 161.92 143.725 161.785 143.626 161.685C143.526 161.586 143.391 161.53 143.25 161.53H140.062C139.922 161.53 139.786 161.586 139.687 161.685C139.587 161.785 139.531 161.92 139.531 162.061V163.655C139.531 163.796 139.587 163.931 139.687 164.03C139.786 164.13 139.922 164.186 140.062 164.186H141.125V167.905H139V164.717C139 164.648 138.986 164.578 138.96 164.514C138.933 164.45 138.894 164.391 138.844 164.342C138.795 164.292 138.737 164.253 138.672 164.226C138.608 164.2 138.539 164.186 138.469 164.186H137.406V162.592C137.406 162.523 137.393 162.453 137.366 162.389C137.339 162.325 137.3 162.266 137.251 162.217C137.201 162.167 137.143 162.128 137.078 162.101C137.014 162.075 136.945 162.061 136.875 162.061H135.812V153.513C136.328 153.406 136.791 153.127 137.125 152.721C137.158 152.762 137.192 152.801 137.229 152.839C137.444 153.068 137.704 153.251 137.993 153.375C138.281 153.499 138.592 153.562 138.906 153.561H139.094C139.408 153.562 139.719 153.499 140.007 153.375C140.296 153.251 140.556 153.068 140.771 152.839C140.808 152.801 140.842 152.762 140.875 152.721C140.951 152.813 141.035 152.9 141.125 152.98V154.624C140.421 154.624 139.746 154.904 139.248 155.402C138.75 155.9 138.469 156.576 138.469 157.28C138.469 157.35 138.482 157.419 138.509 157.483C138.536 157.548 138.575 157.606 138.624 157.655C138.674 157.705 138.732 157.744 138.797 157.771C138.861 157.797 138.93 157.811 139 157.811H144.312C144.382 157.811 144.451 157.797 144.516 157.771C144.58 157.744 144.639 157.705 144.688 157.655C144.738 157.606 144.777 157.548 144.803 157.483C144.83 157.419 144.844 157.35 144.844 157.28C144.843 156.576 144.563 155.9 144.065 155.402C143.567 154.904 142.892 154.624 142.187 154.624V153.513C142.342 153.545 142.499 153.561 142.657 153.561H142.823C143.158 153.561 143.49 153.488 143.794 153.348C144.098 153.207 144.368 153.001 144.585 152.746C144.599 152.73 144.612 152.713 144.625 152.696C144.841 152.967 145.116 153.185 145.428 153.335C145.741 153.485 146.083 153.562 146.43 153.561H146.532C146.866 153.562 147.196 153.49 147.5 153.351V162.061H146.438C146.368 162.061 146.299 162.075 146.234 162.101C146.17 162.128 146.111 162.167 146.062 162.217C146.012 162.266 145.973 162.325 145.947 162.389C145.92 162.453 145.906 162.523 145.906 162.592V164.186H144.844C144.774 164.186 144.705 164.2 144.64 164.226C144.576 164.253 144.517 164.292 144.468 164.342C144.419 164.391 144.38 164.45 144.353 164.514C144.326 164.578 144.312 164.648 144.312 164.717ZM140.594 163.124V162.592H142.719V163.124H140.594ZM130.264 150.923L131.436 146.655H133.593L132.802 151.454C132.754 151.746 132.604 152.012 132.379 152.203C132.153 152.395 131.866 152.499 131.57 152.499H131.468C131.276 152.498 131.087 152.454 130.915 152.369C130.743 152.284 130.593 152.161 130.476 152.008C130.36 151.856 130.28 151.678 130.243 151.49C130.206 151.302 130.213 151.108 130.264 150.923ZM130.5 153.351C130.804 153.49 131.134 153.562 131.468 153.561H131.57C131.917 153.562 132.259 153.485 132.572 153.335C132.884 153.185 133.159 152.967 133.375 152.696C133.388 152.713 133.401 152.73 133.415 152.746C133.758 153.15 134.229 153.424 134.75 153.521V156.217H130.5V153.351ZM135.177 152.499C134.996 152.499 134.817 152.459 134.653 152.383C134.488 152.307 134.342 152.196 134.225 152.058C134.108 151.92 134.022 151.758 133.974 151.584C133.926 151.409 133.916 151.226 133.946 151.048L134.67 146.655H136.845L136.589 151.319C136.571 151.638 136.432 151.938 136.201 152.157C135.969 152.376 135.662 152.499 135.343 152.499H135.177ZM139.999 152.109C139.883 152.232 139.743 152.331 139.587 152.398C139.431 152.465 139.263 152.499 139.094 152.499H138.906C138.737 152.499 138.57 152.464 138.414 152.397C138.258 152.33 138.118 152.233 138.001 152.11C137.885 151.987 137.795 151.842 137.736 151.683C137.677 151.524 137.652 151.355 137.661 151.186L137.909 146.655H140.091L140.339 151.182V151.186C140.349 151.355 140.324 151.524 140.265 151.683C140.207 151.841 140.116 151.986 139.999 152.109ZM141.411 151.319L141.155 146.655H143.33L144.054 151.048C144.084 151.226 144.074 151.409 144.026 151.584C143.978 151.758 143.892 151.92 143.775 152.058C143.658 152.196 143.512 152.307 143.347 152.383C143.183 152.459 143.004 152.499 142.823 152.499H142.657C142.338 152.499 142.031 152.376 141.799 152.157C141.568 151.938 141.429 151.638 141.411 151.319V151.319ZM142.188 155.686C142.517 155.686 142.838 155.789 143.107 155.979C143.376 156.169 143.58 156.438 143.69 156.749H139.622C139.732 156.438 139.936 156.169 140.205 155.979C140.474 155.789 140.795 155.686 141.125 155.686H142.188ZM147.525 152.007C147.409 152.16 147.259 152.285 147.086 152.37C146.914 152.455 146.725 152.499 146.532 152.499H146.43C146.134 152.499 145.847 152.395 145.621 152.203C145.396 152.012 145.246 151.746 145.198 151.454L144.407 146.655H146.564L147.736 150.92C147.736 150.921 147.736 150.922 147.736 150.923C147.787 151.108 147.795 151.302 147.758 151.49C147.721 151.678 147.641 151.855 147.525 152.007ZM146.969 163.124H147.5V164.186H146.969V163.124ZM151.387 150.803C151.459 150.992 151.485 151.195 151.461 151.397C151.438 151.598 151.365 151.79 151.251 151.957C151.136 152.124 150.983 152.261 150.803 152.355C150.624 152.449 150.425 152.499 150.222 152.499C149.949 152.498 149.683 152.408 149.466 152.242C149.249 152.077 149.092 151.845 149.019 151.581L147.665 146.655H149.792L151.387 150.803ZM128.375 138.155H149.625V145.592H128.375V138.155ZM126.749 151.957C126.633 151.791 126.56 151.598 126.536 151.397C126.513 151.196 126.539 150.991 126.613 150.803L128.208 146.655H130.335L128.981 151.581C128.908 151.845 128.751 152.077 128.534 152.242C128.317 152.408 128.051 152.498 127.778 152.499C127.575 152.5 127.375 152.451 127.196 152.357C127.016 152.263 126.863 152.125 126.749 151.957ZM128.375 153.481C128.779 153.373 129.147 153.156 129.438 152.855V164.186H128.375V153.481ZM132.625 167.905H124.125V165.249H132.625V167.905ZM133.156 164.186H130.5V157.28H134.75V167.905H133.688V164.717C133.688 164.648 133.674 164.578 133.647 164.514C133.62 164.45 133.581 164.391 133.532 164.342C133.483 164.292 133.424 164.253 133.36 164.226C133.295 164.2 133.226 164.186 133.156 164.186ZM135.812 163.124H136.344V164.717C136.344 164.787 136.357 164.856 136.384 164.921C136.411 164.985 136.45 165.044 136.499 165.093C136.549 165.142 136.607 165.181 136.672 165.208C136.736 165.235 136.805 165.249 136.875 165.249H137.938V167.905H135.812V163.124ZM153.875 167.905H145.375V165.249H153.875V167.905Z" fill="black"/>
<path id="Vector_44" d="M142.719 142.405H142.142C142.031 141.753 141.72 141.151 141.252 140.684C140.785 140.216 140.183 139.905 139.531 139.794V139.217C139.531 139.076 139.475 138.941 139.376 138.842C139.276 138.742 139.141 138.686 139 138.686C138.859 138.686 138.724 138.742 138.624 138.842C138.525 138.941 138.469 139.076 138.469 139.217V139.794C137.817 139.905 137.215 140.216 136.748 140.684C136.28 141.151 135.969 141.753 135.858 142.405H135.281C135.14 142.405 135.005 142.461 134.906 142.56C134.806 142.66 134.75 142.795 134.75 142.936C134.751 143.499 134.975 144.04 135.373 144.438C135.771 144.836 136.312 145.06 136.875 145.061H141.125C141.688 145.06 142.229 144.836 142.627 144.438C143.025 144.04 143.249 143.499 143.25 142.936C143.25 142.795 143.194 142.66 143.094 142.56C142.995 142.461 142.86 142.405 142.719 142.405ZM139 140.811C139.471 140.812 139.928 140.968 140.301 141.257C140.673 141.545 140.939 141.949 141.058 142.405H136.942C137.061 141.949 137.327 141.545 137.699 141.257C138.072 140.968 138.529 140.812 139 140.811ZM141.125 143.999H136.875C136.689 143.998 136.505 143.949 136.344 143.856C136.182 143.763 136.048 143.629 135.955 143.467H142.045C141.952 143.629 141.818 143.763 141.656 143.856C141.495 143.949 141.311 143.998 141.125 143.999Z" fill="black"/>
<path id="Vector_45" d="M135.045 141.253C135.117 141.205 135.177 141.139 135.218 141.062C135.26 140.985 135.281 140.898 135.281 140.811V139.217H134.219V140.508C134.05 140.594 133.872 140.659 133.688 140.702V139.217H132.625V140.702C132.441 140.659 132.262 140.594 132.094 140.508V139.217H131.031V140.811C131.031 140.898 131.053 140.985 131.094 141.062C131.135 141.139 131.195 141.205 131.268 141.253C131.677 141.526 132.14 141.707 132.625 141.784V145.061H133.688V141.784C134.173 141.707 134.636 141.526 135.045 141.253Z" fill="black"/>
<path id="Vector_46" d="M144.844 138.686C144.326 138.686 143.827 138.875 143.439 139.217C143.051 139.559 142.801 140.03 142.736 140.543C142.67 141.057 142.795 141.576 143.085 142.004C143.375 142.432 143.812 142.739 144.312 142.869V145.061H145.375V142.869C145.876 142.739 146.312 142.432 146.602 142.004C146.893 141.576 147.017 141.057 146.952 140.543C146.887 140.03 146.636 139.559 146.248 139.217C145.86 138.875 145.361 138.686 144.844 138.686ZM144.844 141.874C144.633 141.874 144.428 141.811 144.253 141.694C144.079 141.578 143.942 141.412 143.862 141.218C143.782 141.023 143.761 140.81 143.802 140.604C143.843 140.398 143.944 140.208 144.092 140.06C144.241 139.911 144.43 139.81 144.636 139.769C144.842 139.728 145.056 139.749 145.25 139.829C145.444 139.91 145.61 140.046 145.727 140.221C145.844 140.395 145.906 140.601 145.906 140.811C145.906 141.093 145.794 141.363 145.595 141.562C145.395 141.761 145.125 141.873 144.844 141.874Z" fill="black"/>
</g>
</g>
</g>
<path id="icon-left" d="M145.197 52.079L137.451 44.333C136.85 43.7288 136.85 42.7529 137.451 42.1487L145.197 34.4027C145.776 33.9055 146.633 33.9055 147.212 34.4027C147.861 34.9589 147.937 35.938 147.381 36.5871L140.735 43.2331L147.381 49.8946C147.982 50.4988 147.982 51.4748 147.381 52.079C146.777 52.6801 145.801 52.6801 145.197 52.079Z" fill="black"/>
<path id="icon-right" d="M166.803 52.079L174.549 44.333C175.15 43.7288 175.15 42.7529 174.549 42.1487L166.803 34.4027C166.224 33.9055 165.367 33.9055 164.788 34.4027C164.139 34.9589 164.063 35.938 164.619 36.5871L171.265 43.2331L164.619 49.8946C164.018 50.4988 164.018 51.4748 164.619 52.079C165.223 52.6801 166.199 52.6801 166.803 52.079Z" fill="black"/>
<path id="icon-quote-open" d="M197.217 42.595C198.493 42.7109 199.536 43.2037 200.348 44.0733C201.159 44.9428 201.565 46.0443 201.565 47.3776C201.565 48.8269 201.13 50.0153 200.261 50.9428C199.391 51.8124 198.29 52.2472 196.957 52.2472C195.449 52.2472 194.232 51.6965 193.304 50.595C192.435 49.4936 192 47.7834 192 45.4646C192 41.0008 193.478 37.1457 196.435 33.8993C197.014 33.3196 197.681 33.0298 198.435 33.0298C199.072 33.0298 199.623 33.2617 200.087 33.7254C200.551 34.1312 200.783 34.624 200.783 35.2037C200.783 35.8414 200.551 36.3921 200.087 36.8559C198.58 38.4211 197.623 40.3341 197.217 42.595ZM211.652 42.595C212.928 42.7109 213.971 43.2037 214.783 44.0733C215.594 44.9428 216 46.0443 216 47.3776C216 48.8269 215.565 50.0153 214.696 50.9428C213.826 51.8124 212.725 52.2472 211.391 52.2472C209.884 52.2472 208.667 51.6965 207.739 50.595C206.87 49.4936 206.435 47.7834 206.435 45.4646C206.435 41.0008 207.913 37.1457 210.87 33.8993C211.449 33.3196 212.116 33.0298 212.87 33.0298C213.507 33.0298 214.058 33.2617 214.522 33.7254C214.986 34.1312 215.217 34.624 215.217 35.2037C215.217 35.8414 214.986 36.3921 214.522 36.8559C213.014 38.4211 212.058 40.3341 211.652 42.595Z" fill="black"/>
<path id="icon-quote-close" d="M251.783 42.595C250.507 42.7109 249.464 43.2037 248.652 44.0733C247.841 44.9428 247.435 46.0443 247.435 47.3776C247.435 48.8269 247.87 50.0153 248.739 50.9428C249.609 51.8124 250.71 52.2472 252.043 52.2472C253.551 52.2472 254.768 51.6965 255.696 50.595C256.565 49.4936 257 47.7834 257 45.4646C257 41.0008 255.522 37.1457 252.565 33.8993C251.986 33.3196 251.319 33.0298 250.565 33.0298C249.928 33.0298 249.377 33.2617 248.913 33.7254C248.449 34.1312 248.217 34.624 248.217 35.2037C248.217 35.8414 248.449 36.3921 248.913 36.8559C250.42 38.4211 251.377 40.3341 251.783 42.595ZM237.348 42.595C236.072 42.7109 235.029 43.2037 234.217 44.0733C233.406 44.9428 233 46.0443 233 47.3776C233 48.8269 233.435 50.0153 234.304 50.9428C235.174 51.8124 236.275 52.2472 237.609 52.2472C239.116 52.2472 240.333 51.6965 241.261 50.595C242.13 49.4936 242.565 47.7834 242.565 45.4646C242.565 41.0008 241.087 37.1457 238.13 33.8993C237.551 33.3196 236.884 33.0298 236.13 33.0298C235.493 33.0298 234.942 33.2617 234.478 33.7254C234.014 34.1312 233.783 34.624 233.783 35.2037C233.783 35.8414 234.014 36.3921 234.478 36.8559C235.986 38.4211 236.942 40.3341 237.348 42.595Z" fill="black"/>
<g id="icon-telegram">
<path id="Vector_47" d="M14.318 50.3299C14.0587 50.3299 13.8193 50.1914 13.7024 49.9704L11.6608 46.112C11.5487 45.9001 11.5679 45.6466 11.7103 45.451L15.0059 41.2299L10.5382 44.3434C10.3311 44.4786 10.0629 44.4955 9.83864 44.3902L5.75616 42.4616C5.51128 42.3453 5.36202 42.1028 5.37715 41.8441C5.3916 41.5854 5.56838 41.3592 5.82564 41.2702L18.8951 36.7202C19.1461 36.6337 19.4288 36.6903 19.6194 36.8703C19.8092 37.0491 19.8711 37.3169 19.7783 37.5548L14.9632 49.9048C14.8683 50.1479 14.6296 50.3149 14.3558 50.3286C14.3435 50.3292 14.3304 50.3299 14.318 50.3299Z" fill="black"/>
</g>
<path id="icon-facebook" d="M39.5468 54.5561V44.9246H37V41.4567H39.5468V38.4948C39.5468 36.1672 41.0512 34.0298 44.5176 34.0298C45.9211 34.0298 46.959 34.1643 46.959 34.1643L46.8772 37.4027C46.8772 37.4027 45.8188 37.3924 44.6638 37.3924C43.4137 37.3924 43.2134 37.9685 43.2134 38.9246V41.4567H46.9765L46.8128 44.9246H43.2134V54.5561H39.5468Z" fill="black"/>
<path id="icon-twitter" d="M84.5263 38.0106C83.7715 38.3363 82.95 38.5706 82.1039 38.6619C82.9824 38.14 83.6402 37.3155 83.954 36.3431C83.1297 36.8335 82.2266 37.1773 81.2849 37.3594C80.8913 36.9386 80.4153 36.6034 79.8865 36.3747C79.3577 36.1459 78.7874 36.0285 78.2113 36.0298C75.8802 36.0298 74.0054 37.9194 74.0054 40.2382C74.0054 40.5638 74.0448 40.8894 74.109 41.2027C70.6184 41.0201 67.5053 39.3526 65.4357 36.7994C65.0586 37.4436 64.8609 38.177 64.8634 38.9234C64.8634 40.3837 65.6059 41.6714 66.7382 42.4287C66.0709 42.4024 65.4193 42.219 64.8362 41.8934V41.9452C64.8362 43.9902 66.2818 45.6849 68.2084 46.0746C67.8466 46.1686 67.4745 46.2167 67.1008 46.2177C66.827 46.2177 66.5679 46.1906 66.3065 46.1536C66.8393 47.8211 68.3909 49.0323 70.2386 49.0718C68.793 50.2041 66.9824 50.8701 65.0163 50.8701C64.6636 50.8701 64.338 50.8578 64 50.8183C65.8649 52.0147 68.0776 52.7054 70.4606 52.7054C78.1965 52.7054 82.4295 46.2967 82.4295 40.734C82.4295 40.5515 82.4295 40.3689 82.4172 40.1864C83.2362 39.5869 83.954 38.8444 84.5263 38.0106Z" fill="black"/>
<path id="icon-instagram" d="M110.748 40.5284C108.957 40.5284 107.496 41.9895 107.496 43.7798C107.496 45.5701 108.957 47.0312 110.748 47.0312C112.538 47.0312 113.999 45.5701 113.999 43.7798C113.999 41.9895 112.538 40.5284 110.748 40.5284ZM120.499 43.7798C120.499 42.4334 120.511 41.0992 120.436 39.7552C120.36 38.1941 120.004 36.8087 118.863 35.6672C117.719 34.5232 116.336 34.1695 114.775 34.0939C113.428 34.0183 112.094 34.0305 110.75 34.0305C109.404 34.0305 108.069 34.0183 106.725 34.0939C105.164 34.1695 103.779 34.5257 102.637 35.6672C101.493 36.8111 101.14 38.1941 101.064 39.7552C100.989 41.1016 101.001 42.4358 101.001 43.7798C101.001 45.1238 100.989 46.4604 101.064 47.8044C101.14 49.3654 101.496 50.7509 102.637 51.8924C103.781 53.0364 105.164 53.39 106.725 53.4656C108.072 53.5413 109.406 53.5291 110.75 53.5291C112.096 53.5291 113.431 53.5413 114.775 53.4656C116.336 53.39 117.721 53.0339 118.863 51.8924C120.007 50.7484 120.36 49.3654 120.436 47.8044C120.514 46.4604 120.499 45.1262 120.499 43.7798ZM110.748 48.7825C107.979 48.7825 105.745 46.5482 105.745 43.7798C105.745 41.0114 107.979 38.7771 110.748 38.7771C113.516 38.7771 115.75 41.0114 115.75 43.7798C115.75 46.5482 113.516 48.7825 110.748 48.7825ZM115.955 39.7406C115.309 39.7406 114.787 39.2186 114.787 38.5722C114.787 37.9258 115.309 37.4039 115.955 37.4039C116.602 37.4039 117.123 37.9258 117.123 38.5722C117.124 38.7257 117.094 38.8777 117.035 39.0195C116.976 39.1614 116.89 39.2903 116.782 39.3988C116.673 39.5073 116.544 39.5934 116.402 39.652C116.261 39.7107 116.109 39.7407 115.955 39.7406Z" fill="black"/>
<g id="icon-time">
<path id="Vector_48" d="M190.575 2.56994V1.61111C190.575 1.44903 190.51 1.2936 190.396 1.17899C190.281 1.06438 190.126 1 189.964 1C189.802 1 189.646 1.06438 189.532 1.17899C189.417 1.2936 189.353 1.44903 189.353 1.61111V2.57544C184.55 2.90911 180.744 6.91953 180.744 11.8051C180.744 16.9075 184.897 21.0597 190 21.0597C195.103 21.0597 199.256 16.9075 199.256 11.8051C199.256 6.89508 195.411 2.86786 190.575 2.56994ZM190 19.8375C185.57 19.8375 181.967 16.2338 181.967 11.8051C181.967 7.37572 185.57 3.77231 190 3.77231C194.43 3.77231 198.033 7.37572 198.033 11.8051C198.033 16.2338 194.43 19.8375 190 19.8375Z" fill="black"/>
<path id="Vector_49" d="M186.863 17.3515C184.868 16.22 183.629 14.0942 183.629 11.8047C183.629 11.6354 183.492 11.4991 183.323 11.4991C183.154 11.4991 183.018 11.6354 183.018 11.8047C183.018 14.3139 184.376 16.6432 186.562 17.8834C186.632 17.9234 186.716 17.9337 186.794 17.912C186.872 17.8904 186.938 17.8386 186.978 17.7681C187.018 17.6975 187.029 17.614 187.007 17.5359C186.985 17.4577 186.933 17.3914 186.863 17.3515Z" fill="black"/>
<path id="Vector_50" d="M188.529 18.1897C188.411 18.1589 188.293 18.1248 188.177 18.0877C188.1 18.0647 188.018 18.0728 187.947 18.1101C187.876 18.1475 187.823 18.2112 187.798 18.2875C187.774 18.3638 187.78 18.4466 187.817 18.5181C187.853 18.5896 187.915 18.644 187.991 18.6697C188.118 18.7107 188.246 18.7474 188.376 18.7807C188.455 18.8009 188.538 18.7892 188.608 18.748C188.678 18.7069 188.728 18.6397 188.749 18.5613C188.759 18.5225 188.761 18.4821 188.755 18.4424C188.75 18.4027 188.736 18.3645 188.716 18.33C188.696 18.2954 188.669 18.2653 188.637 18.2412C188.605 18.2172 188.568 18.1997 188.529 18.1897Z" fill="black"/>
<path id="Vector_51" d="M197.885 5.75778C198 5.87221 198.156 5.93636 198.318 5.93613C198.48 5.9359 198.635 5.87131 198.75 5.75656C198.864 5.64181 198.928 5.4863 198.928 5.32425C198.928 5.1622 198.863 5.00687 198.748 4.89245L197.162 3.30967C197.105 3.25295 197.037 3.20798 196.963 3.17734C196.889 3.1467 196.81 3.13099 196.729 3.1311C196.649 3.13122 196.57 3.14716 196.495 3.17801C196.421 3.20886 196.354 3.25401 196.297 3.31089C196.183 3.4257 196.119 3.58118 196.119 3.7432C196.119 3.90522 196.184 4.06053 196.299 4.175L197.885 5.75778Z" fill="black"/>
<path id="Vector_52" d="M190.575 11.6911V6.80557C190.575 6.64349 190.51 6.48805 190.396 6.37345C190.281 6.25884 190.126 6.19446 189.963 6.19446C189.801 6.19446 189.646 6.25884 189.531 6.37345C189.417 6.48805 189.352 6.64349 189.352 6.80557V11.9551C189.352 12.1235 189.44 12.2839 189.562 12.3991L191.351 14.0705C191.469 14.1817 191.62 14.2373 191.77 14.2373C191.852 14.2374 191.933 14.2204 192.008 14.1874C192.083 14.1543 192.15 14.106 192.205 14.0454C192.438 13.7997 192.417 13.4132 192.171 13.1816L190.575 11.6911Z" fill="black"/>
</g>
<g id="icon-location">
<path id="Stroke 1_2" fill-rule="evenodd" clip-rule="evenodd" d="M82.5 10.5303C82.5 9.14902 81.3808 8.02979 80.0005 8.02979C78.6192 8.02979 77.5 9.14902 77.5 10.5303C77.5 11.9105 78.6192 13.0298 80.0005 13.0298C81.3808 13.0298 82.5 11.9105 82.5 10.5303Z" stroke="black" stroke-width="1.5" stroke-linecap="round" stroke-linejoin="round"/>
<path id="Stroke 3_2" fill-rule="evenodd" clip-rule="evenodd" d="M79.9995 21.0298C78.801 21.0298 72.5 15.9282 72.5 10.5931C72.5 6.41642 75.8571 3.02979 79.9995 3.02979C84.1419 3.02979 87.5 6.41642 87.5 10.5931C87.5 15.9282 81.198 21.0298 79.9995 21.0298Z" stroke="black" stroke-width="1.5" stroke-linecap="round" stroke-linejoin="round"/>
</g>
<g id="icon-call">
<path id="Stroke 1_3" d="M119.353 1.52979C123.054 1.94079 125.978 4.86079 126.393 8.56179" stroke="black" stroke-width="1.5" stroke-linecap="round" stroke-linejoin="round"/>
<path id="Stroke 3_3" d="M119.353 5.07275C121.124 5.41675 122.508 6.80175 122.853 8.57275" stroke="black" stroke-width="1.5" stroke-linecap="round" stroke-linejoin="round"/>
<path id="Stroke 5_2" fill-rule="evenodd" clip-rule="evenodd" d="M116.032 11.5022C120.021 15.4901 120.925 10.8765 123.465 13.4146C125.914 15.8625 127.322 16.353 124.219 19.4545C123.83 19.7668 121.361 23.524 112.684 14.8495C104.007 6.17379 107.762 3.70223 108.074 3.31373C111.184 0.203631 111.667 1.61917 114.115 4.06711C116.654 6.60628 112.043 7.5142 116.032 11.5022Z" stroke="black" stroke-width="1.5" stroke-linecap="round" stroke-linejoin="round"/>
</g>
<g id="icon-message">
<path id="Stroke 1_4" d="M159.903 7.88098L155.459 11.494C154.62 12.16 153.439 12.16 152.599 11.494L148.118 7.88098" stroke="black" stroke-width="1.5" stroke-linecap="round" stroke-linejoin="round"/>
<path id="Stroke 3_4" fill-rule="evenodd" clip-rule="evenodd" d="M158.909 20.0297C161.95 20.0382 164 17.5393 164 14.4681V7.5998C164 4.52861 161.95 2.02979 158.909 2.02979H149.091C146.05 2.02979 144 4.52861 144 7.5998V14.4681C144 17.5393 146.05 20.0382 149.091 20.0297H158.909Z" stroke="black" stroke-width="1.5" stroke-linecap="round" stroke-linejoin="round"/>
</g>
<g id="icon-arrow-right">
<path id="Vector_53" d="M280.121 35.3228C279.934 35.5103 279.828 35.7647 279.828 36.0298C279.828 36.295 279.934 36.5493 280.121 36.7368L283.413 40.0298L273 40.0368C272.735 40.0368 272.48 40.1422 272.293 40.3297C272.105 40.5172 272 40.7716 272 41.0368C272 41.302 272.105 41.5564 272.293 41.7439C272.48 41.9315 272.735 42.0368 273 42.0368L283.414 42.0298L280.121 45.3228C280.025 45.4151 279.949 45.5254 279.897 45.6474C279.844 45.7694 279.817 45.9006 279.816 46.0334C279.815 46.1662 279.84 46.2979 279.89 46.4208C279.94 46.5437 280.015 46.6553 280.109 46.7492C280.202 46.8431 280.314 46.9174 280.437 46.9676C280.56 47.0179 280.692 47.0432 280.824 47.0421C280.957 47.0409 281.088 47.0133 281.21 46.9609C281.332 46.9085 281.443 46.8323 281.535 46.7368L285.121 43.1518C285.4 42.8732 285.621 42.5425 285.771 42.1785C285.922 41.8145 286 41.4243 286 41.0303C286 40.6363 285.922 40.2462 285.771 39.8821C285.621 39.5181 285.4 39.1874 285.121 38.9088L281.535 35.3228C281.347 35.1353 281.093 35.03 280.828 35.03C280.563 35.03 280.309 35.1353 280.121 35.3228Z" fill="black"/>
</g>
<path id="icon-check" d="M104.693 199.03C104.417 199.03 104.14 198.927 103.93 198.721L97.3167 192.274C96.8944 191.863 96.8944 191.197 97.3167 190.786C97.7388 190.374 98.4211 190.374 98.8434 190.786L104.693 196.489L117.157 184.338C117.579 183.927 118.261 183.927 118.683 184.338C119.106 184.75 119.106 185.415 118.683 185.827L105.457 198.721C105.246 198.927 104.97 199.03 104.693 199.03Z" fill="black"/>
<g id="icon-chevron-left">
<path id="Vector_54" d="M28.2164 190.601L37.2238 198.809C37.5194 199.103 37.9988 199.103 38.2944 198.809C38.5899 198.515 38.5899 198.038 38.2944 197.744L29.83 190.03L38.2936 182.316C38.5892 182.022 38.5892 181.544 38.2936 181.25C37.998 180.956 37.5187 180.956 37.2231 181.25L28.2156 189.459C28.0581 189.616 27.9905 189.823 28.0011 190.029C27.9913 190.235 28.0588 190.443 28.2164 190.601Z" fill="black"/>
</g>
<g id="icon-chevron-right">
<path id="Vector_55" d="M60.2997 190.601L51.2922 198.809C50.9966 199.103 50.5173 199.103 50.2217 198.809C49.9261 198.515 49.9261 198.038 50.2217 197.744L58.686 190.03L50.2224 182.316C49.9269 182.022 49.9269 181.544 50.2224 181.25C50.518 180.956 50.9974 180.956 51.2929 181.25L60.3004 189.459C60.458 189.616 60.5255 189.823 60.515 190.029C60.5248 190.235 60.4573 190.443 60.2997 190.601Z" fill="black"/>
</g>
<g id="icon-chevron-down">
<path id="Vector_56" d="M77.4291 200.329L69.2206 191.322C68.9265 191.026 68.9265 190.547 69.2206 190.251C69.5146 189.956 69.9918 189.956 70.2858 190.251L78 198.716L85.7142 190.252C86.0083 189.957 86.4854 189.957 86.7795 190.252C87.0735 190.548 87.0735 191.027 86.7795 191.323L78.5709 200.33C78.4141 200.488 78.2063 200.555 78.0008 200.545C77.7945 200.555 77.5867 200.487 77.4291 200.329Z" fill="black"/>
</g>
<g id="icon-plus" clip-path="url(#clip7_20162_73)">
<path id="Vector_57" d="M147 188.03H139V180.03C139 179.478 138.552 179.03 138 179.03C137.448 179.03 137 179.478 137 180.03V188.03H129C128.448 188.03 128 188.478 128 189.03C128 189.582 128.448 190.03 129 190.03H137V198.03C137 198.582 137.448 199.03 138 199.03C138.552 199.03 139 198.582 139 198.03V190.03H147C147.552 190.03 148 189.582 148 189.03C148 188.478 147.552 188.03 147 188.03Z" fill="black"/>
</g>
<g id="icon-minus" clip-path="url(#clip8_20162_73)">
<g id="Group_40">
<g id="Group_41">
<path id="Vector_58" d="M178.167 188.067H159.833C159.373 188.067 159 188.434 159 188.888C159 189.342 159.373 189.71 159.833 189.71H178.167C178.627 189.71 179 189.342 179 188.888C179 188.434 178.627 188.067 178.167 188.067Z" fill="black"/>
</g>
</g>
</g>
<g id="icon-star" clip-path="url(#clip9_20162_73)">
<g id="Group_42">
<g id="Group_43">
<path id="Vector_59" d="M3.76258 187.194C3.81754 187.024 3.96376 186.901 4.1398 186.875L9.08522 186.154L11.2969 181.66C11.3756 181.5 11.5381 181.398 11.716 181.398C11.8939 181.398 12.0564 181.5 12.1351 181.66L14.3469 186.154L19.2922 186.875C19.4682 186.901 19.6145 187.024 19.6695 187.194C19.7245 187.364 19.6786 187.55 19.5512 187.675L15.9728 191.173L16.8175 196.113C16.8475 196.289 16.7755 196.467 16.6315 196.572C16.5501 196.631 16.4537 196.661 16.3568 196.661C16.2824 196.661 16.2077 196.643 16.1394 196.607L11.716 194.275L7.29288 196.607C7.13538 196.69 6.9446 196.677 6.80068 196.572C6.65677 196.467 6.58464 196.289 6.61471 196.113L7.4596 191.173L3.88082 187.675C3.75345 187.55 3.70755 187.364 3.76258 187.194Z" fill="black"/>
</g>
</g>
</g>
</g>
<defs>
<clipPath id="clip0_20162_73">
<rect width="44" height="44" fill="white" transform="translate(0 69.0298)"/>
</clipPath>
<clipPath id="clip1_20162_73">
<rect width="44" height="44" fill="white" transform="matrix(1 0 0 -1 69 113.03)"/>
</clipPath>
<clipPath id="clip2_20162_73">
<rect width="44" height="44" fill="white" transform="translate(138 69.0298)"/>
</clipPath>
<clipPath id="clip3_20162_73">
<rect width="44" height="44" fill="white" transform="translate(207 69.0298)"/>
</clipPath>
<clipPath id="clip4_20162_73">
<rect width="44" height="44" fill="white" transform="translate(207 69.0298)"/>
</clipPath>
<clipPath id="clip5_20162_73">
<rect width="44" height="43.4894" fill="white" transform="translate(276 69.0298)"/>
</clipPath>
<clipPath id="clip6_20162_73">
<rect width="34" height="34" fill="white" transform="translate(4 136.03)"/>
</clipPath>
<clipPath id="clip7_20162_73">
<rect width="20" height="20" fill="white" transform="translate(128 179.03)"/>
</clipPath>
<clipPath id="clip8_20162_73">
<rect width="20" height="19.7167" fill="white" transform="translate(159 179.03)"/>
</clipPath>
<clipPath id="clip9_20162_73">
<rect width="16" height="16" fill="white" transform="matrix(-1 0 0 1 20 181.03)"/>
</clipPath>
</defs>
</svg>
